<?xml version="1.0" encoding="utf-8"?>
<!-- Generator: Adobe Illustrator 16.0.0, SVG Export Plug-In . SVG Version: 6.00 Build 0)  -->
<svg version="1.2" baseProfile="tiny" id="Layer_1" xmlns="http://www.w3.org/2000/svg" xmlns:xlink="http://www.w3.org/1999/xlink"
	 x="0px" y="0px" width="240px" height="328.5px" viewBox="0 0 240 328.5" xml:space="preserve">
<g>
	<path fill-rule="evenodd" fill="#9B9188" d="M134.023,100.297c-0.005,5.854,0.038,11.705-0.035,17.556
		c-0.018,1.434,0.343,2.763,0.622,4.118c0.144,0.692,0.405,1.56,1.225,1.703c0.951,0.164,1.194-0.806,1.477-1.416
		c1.957-4.234,3.795-8.522,5.77-12.746c2.532-5.415,5.141-10.793,7.753-16.17c0.492-1.016,0.958-2.084,2.062-2.68
		c1.246-0.675,2.568-0.757,3.774-0.18c1.306,0.627,1.764,1.852,1.594,3.318c-0.446,3.863-2.112,7.37-3.221,11.035
		c-2.739,9.056-6.001,17.954-8.281,27.146c-1.105,4.452-0.346,8.819,1.708,12.87c1.43,2.819,2.995,2.933,5.095,0.613
		c2.149-2.377,4.078-4.975,6.377-7.191c3.825-3.685,8.515-4.296,13.491-2.95c2.065,0.56,2.587,2.347,1.171,3.959
		c-0.962,1.096-2.103,2.138-3.359,2.861c-7.363,4.232-11.647,10.853-14.753,18.479c-2.872,7.052-6.537,13.623-12.431,18.662
		c-2.929,2.504-2.363,6.063-2.498,9.151c-0.301,6.861-0.61,13.785,1.29,20.555c0.48,1.719,0.073,2.949-2.307,2.921
		c-9.312-0.113-18.626-0.033-27.941-0.055c-2.542-0.007-2.936-0.595-2.442-3.15c1.562-8.115,1.934-16.291,1.057-24.503
		c-0.244-2.276-1.794-4.013-3.117-5.743c-5.138-6.711-7.476-14.492-8.668-22.662c-2.05-14.05-5.443-27.69-11.676-40.524
		c-0.609-1.255-1.189-2.527-1.707-3.822c-0.739-1.849-1.171-3.777,0.918-5.012c1.984-1.174,3.487,0.103,4.69,1.509
		c2.628,3.071,4.204,6.823,6.375,10.194c2.127,3.304,3.958,6.824,6.916,9.532c0.618,0.566,1.198,1.309,2.104,0.959
		c1.085-0.416,0.885-1.424,0.767-2.339c-0.708-5.507-1.386-11.019-2.123-16.521c-0.553-4.133-1.198-8.255-1.341-12.427
		c-0.077-2.271-1.007-4.486-0.233-6.829c0.58-1.755,1.236-3.264,3.372-3.294c2.161-0.032,2.866,1.416,3.34,3.251
		c2.417,9.39,4.87,18.772,7.382,28.138c0.453,1.691,0.741,4.492,2.33,4.463c1.937-0.033,1.558-2.891,1.889-4.491
		c0.66-3.191,0.902-6.48,1.167-9.741c0.713-8.74,1.321-17.49,2.022-26.231c0.318-3.97,3.649-6.318,6.429-4.599
		c1.464,0.903,1.983,2.304,1.979,3.984C134.014,88.098,134.025,94.196,134.023,100.297z"/>
	<path fill-rule="evenodd" fill="#FAE62F" d="M60.597,90.81c0.252,2.353,2.224,3.512,3.412,5.181
		c1.373,1.93,3.135,3.582,4.745,5.341c0.662,0.723,1.535,1.452,1.182,2.5c-0.332,0.983-1.555,1.018-2.336,1.061
		c-7.409,0.409-14.013-1.518-18.856-7.465c-4.895-6.013-7.208-13.072-7.737-20.765c-0.444-6.447-0.444-6.707,6.002-6.201
		c7.388,0.581,13.768,3.834,19.332,8.678c4.122,3.589,7.094,7.896,8.134,13.366c0.403,2.121,0.201,4.265,0.119,6.391
		c-0.029,0.77-0.355,1.782-1.226,1.962c-0.921,0.191-1.68-0.51-2.299-1.18C67.948,96.309,64.253,93.611,60.597,90.81z"/>
	<path fill-rule="evenodd" fill="#FAE62F" d="M155.02,67.551c-1.502,1.367-3.057,2.68-4.488,4.114
		c-1.627,1.63-3.141,3.37-4.712,5.058c-0.624,0.668-1.272,1.422-2.307,1.047c-0.886-0.318-0.949-1.19-1.099-2.014
		c-1.996-11.079,2.865-19.809,13.955-25.093c3.927-1.871,8.062-3.089,12.303-3.947c3.41-0.689,4.192,0.077,4.466,3.564
		c0.739,9.446-2.427,17.612-8.446,24.635c-4.001,4.669-9.214,7.297-15.617,6.889c-2.295-0.146-2.839-1.064-1.453-2.917
		C150.305,75.295,152.869,71.629,155.02,67.551z"/>
	<path fill-rule="evenodd" fill="#EE3E24" d="M118.541,49.428c-1.599,5.212-2.191,10.273-2.818,15.326
		c-0.07,0.57,0.003,1.165-0.12,1.719c-0.521,2.369-1.691,2.692-3.526,1.004c-6.139-5.643-7.781-13.057-4.587-21.495
		c2.359-6.228,6.168-11.523,10.943-16.146c1.494-1.444,2.872-1.416,4.176,0.192c4.045,4.978,6.384,10.708,7.455,16.996
		c0.808,4.74,0.843,9.425-0.971,13.984c-1.421,3.572-3.803,6.291-7.27,7.986c-2.438,1.192-3.185,0.661-3.201-2.013
		c-0.028-4.941,0.885-9.847,0.551-14.794C119.118,51.404,119.436,50.558,118.541,49.428z"/>
	<path fill-rule="evenodd" fill="#4DB96E" d="M89.927,74.244c0.458,4.185,1.375,8.294,2.27,12.401
		c0.212,0.978,0.681,2.066-0.132,2.765c-0.93,0.798-2.03,0.094-2.975-0.359c-8.447-4.045-12.667-12.005-11.619-21.998
		c0.554-5.273,1.972-10.197,4.326-14.887c1.21-2.412,2.465-2.845,4.733-1.362c9.665,6.326,15.281,15.063,15.286,26.856
		c0.002,3.468-1.347,6.671-3.343,9.554c-0.487,0.703-1.047,1.422-1.9,1.396c-1.087-0.033-1.32-1.085-1.617-1.92
		c-1.485-4.175-2.95-8.354-4.423-12.53C90.332,74.188,90.129,74.216,89.927,74.244z"/>
	<path fill-rule="evenodd" fill="#EE3E24" d="M65.067,128.22c2.713,2.833,5.409,5.682,8.145,8.491
		c1.378,1.412,2.928,2.668,4.219,4.152c1.14,1.309,0.643,2.404-1.094,2.72c-3.721,0.675-7.378,0.323-10.694-1.48
		c-8.615-4.684-13.573-12.226-16.179-21.464c-0.505-1.791-0.767-3.663-0.991-5.517c-0.218-1.805,0.602-2.922,2.542-2.673
		c10.285,1.323,20.068,3.903,27.399,11.936c3.491,3.826,4.202,8.564,3.626,13.529c-0.186,1.604-1.383,1.797-2.889,0.559
		c-3.736-3.073-7.454-6.169-11.202-9.229c-0.729-0.594-1.562-1.063-2.346-1.592C65.424,127.843,65.245,128.031,65.067,128.22z"/>
	<path fill-rule="evenodd" fill="#4DB96E" d="M203.361,143.919c-4.146-2.521-8.309-4.493-12.512-6.402
		c-1.343-0.611-3.466-0.744-3.511-2.6c-0.047-1.92,2.045-2.43,3.441-3.101c7.383-3.542,13.9-1.35,19.727,3.537
		c4.493,3.768,8.152,8.312,10.785,13.606c1.213,2.442,0.95,3.44-1.47,4.426c-8.569,3.489-17.188,3.645-25.68-0.179
		c-4.452-2.005-7.532-5.436-8.946-10.193c-0.347-1.165-0.699-2.541,0.235-3.5c0.974-0.996,2.184-0.145,3.227,0.199
		c4.098,1.355,8.172,2.774,12.256,4.16C201.608,144.109,202.32,144.256,203.361,143.919z"/>
	<path fill-rule="evenodd" fill="#0EA5D2" d="M53.396,46.943c3.882,3.211,7.893,6.129,12.122,8.77
		c1.091,0.683,2.914,1.088,2.641,2.856c-0.25,1.612-1.999,1.84-3.225,2.289c-6.377,2.341-13.641,0.247-18.634-5.327
		c-4.126-4.609-7.245-9.835-9.274-15.693c-1.1-3.176-0.795-3.983,2.421-4.653c10.51-2.186,20.13-0.575,28.15,7.122
		c2.662,2.553,3.645,5.937,4.063,9.46c0.292,2.445-1.12,3.346-3.277,2.158c-4.566-2.514-9.096-5.088-13.962-7.002
		C54.091,46.795,53.854,46.675,53.396,46.943z"/>
	<path fill-rule="evenodd" fill="#0EA4D2" d="M180.298,113.097c-5.045,1.09-9.467,2.048-13.887,3.012
		c-0.236,0.052-0.46,0.249-0.688,0.242c-0.962-0.028-2.188,0.583-2.82-0.251c-0.669-0.887-0.103-2.021,0.383-2.995
		c1.848-3.729,4.894-6.221,8.702-7.499c8.035-2.7,16.051-2.454,23.825,1.137c2.392,1.104,2.74,2.192,1.089,4.143
		c-5.189,6.118-10.951,11.577-19.051,13.558c-4.518,1.105-8.933,0.669-12.743-2.407c-0.618-0.498-1.551-0.991-1.313-1.905
		c0.205-0.803,1.077-1.057,1.906-1.327c3.775-1.236,7.514-2.58,11.261-3.901C177.938,114.558,178.968,114.311,180.298,113.097z"/>
	<path fill-rule="evenodd" fill="#4DB96E" d="M148.236,25.778c-1.778,3.518-2.82,7.316-3.844,11.124
		c-0.267,0.995-0.29,2.312-1.48,2.641c-1.252,0.344-1.892-0.88-2.515-1.65c-3.679-4.532-3.882-9.62-1.712-14.757
		c2.375-5.627,6.303-10.132,11.174-13.803c1.422-1.072,2.727-0.981,3.73,0.604c3.334,5.261,4.857,10.955,4.343,17.217
		c-0.342,4.139-1.55,7.825-4.569,10.8c-1.194,1.175-2.644,1.947-4.135,2.612c-0.719,0.321-1.639,0.512-2.353-0.095
		c-0.751-0.639-0.446-1.448-0.254-2.276C147.557,34.139,147.96,30.004,148.236,25.778z"/>
	<path fill-rule="evenodd" fill="#E81F79" d="M176.777,164.716c-2.701-1.825-5.688-3.1-8.662-4.405
		c-0.826-0.365-1.968-0.507-1.98-1.871c-0.012-1.34,1.087-1.566,1.911-1.945c6.746-3.107,12.91-1.792,18.446,2.8
		c3.296,2.734,5.967,6.059,7.883,9.942c0.93,1.883,0.683,3.248-1.455,4.044c-8.53,3.17-16.646,2.532-24.183-2.736
		c-2.127-1.485-3.326-3.791-4.322-6.16c-0.334-0.794-0.465-1.688,0.003-2.36c0.582-0.836,1.487-0.343,2.26-0.128
		C170.028,162.827,173.214,164.322,176.777,164.716z"/>
	<path fill-rule="evenodd" fill="#FAE62F" d="M91.376,30.958c0.84,3.607,2.855,6.34,4.099,9.404c0.372,0.917,1.53,1.83,0.533,2.861
		c-0.892,0.925-2.191,0.58-3.262,0.282c-5.742-1.597-9.231-5.509-10.555-11.174c-1.127-4.826-0.976-9.754-0.125-14.653
		c0.36-2.072,1.608-2.674,3.363-1.977c8.354,3.319,14.908,8.432,17.213,17.677c0.595,2.385-0.108,4.581-1.041,6.65
		c-1.004,2.231-2.363,2.169-3.699,0.046c-1.655-2.63-3.313-5.258-4.972-7.885C92.622,31.699,92.284,31.238,91.376,30.958z"/>
	<path fill-rule="evenodd" fill="#4DB96E" d="M220.848,81.714c-4.278,0.331-7.821,1.204-11.331,2.218
		c-1.106,0.317-2.408,0.863-3.165-0.167c-0.682-0.926-0.19-2.181,0.303-3.26c1.48-3.255,4.026-5.384,7.324-6.453
		c6.775-2.194,13.354-1.407,19.719,1.709c1.772,0.864,2.256,2.09,1.31,3.749c-3.633,6.37-8.298,11.57-15.796,13.364
		c-3.682,0.881-6.967-0.245-9.896-2.394c-1.8-1.322-1.563-2.382,0.547-3.296C213.412,85.65,217.189,84.581,220.848,81.714z"/>
	<path fill-rule="evenodd" fill="#FAE62F" d="M79.927,168.345c3.693-1.284,6.994-2.406,10.272-3.593
		c0.809-0.293,1.526-0.646,2.24,0.136c0.661,0.728,0.416,1.422,0.172,2.274c-1.833,6.413-6.424,8.381-12.354,9.03
		c-4.018,0.438-7.986-0.317-11.877-1.417c-2.055-0.581-2.636-1.691-1.733-3.655c2.916-6.353,7.468-10.937,14.291-12.868
		c2.803-0.794,5.703-0.624,8.341,0.854c0.753,0.421,1.656,0.876,1.681,1.965c0.029,1.188-1.024,1.389-1.782,1.786
		c-2.534,1.332-5.096,2.608-7.652,3.898C80.95,167.044,80.328,167.265,79.927,168.345z"/>
	<path fill-rule="evenodd" fill="#EE3E24" d="M183.451,83.218c-2.8,1.382-5.015,3.581-7.517,5.379
		c-0.809,0.58-1.592,1.403-2.614,0.996c-1.215-0.482-0.766-1.736-0.688-2.629c0.424-5.038,3.13-8.611,7.393-11.127
		c4.228-2.494,8.937-3.35,13.705-3.904c1.918-0.223,2.942,0.763,2.665,2.814c-0.834,6.164-3.811,11.179-8.217,15.445
		c-2.822,2.733-6.069,4.294-10.108,3.971c-1.113-0.09-2.314-0.185-2.748-1.209c-0.482-1.132,0.595-1.904,1.362-2.604
		c2.426-2.217,4.965-4.307,7.15-6.777c0.158-0.221,0.317-0.444,0.479-0.665C183.899,82.667,183.62,82.789,183.451,83.218z"/>
	<path fill-rule="evenodd" fill="#0FA5D2" d="M28.254,125.756c1.644,0,3.332,0.238,4.92-0.06c1.972-0.372,3.918-0.075,5.87-0.169
		c2.547-0.123,3.019,0.991,1.519,3.163c-2.797,4.05-6.875,5.488-11.55,4.937c-4.838-0.575-9.257-2.519-13.28-5.271
		c-2.377-1.626-2.628-2.814-0.688-4.721c5.598-5.507,12.102-8.576,20.173-6.733c1.965,0.449,3.537,1.645,4.89,3.118
		c0.623,0.677,1.295,1.407,0.875,2.385c-0.373,0.866-1.281,0.821-2.113,0.936c-3.558,0.484-7.105,1.044-10.657,1.577
		C28.227,125.198,28.241,125.477,28.254,125.756z"/>
	<path fill-rule="evenodd" fill="#EE3E25" d="M20.951,94.586c3.483,0.504,6.758-0.59,10.077-1.077
		c0.829-0.123,1.679-0.565,2.261,0.172c0.661,0.838,0.336,1.783-0.091,2.738c-1.684,3.768-4.963,5.502-8.659,6.007
		c-5.409,0.742-10.716,0.046-15.569-2.874c-1.842-1.108-2.186-2.546-1.041-4.075c3.777-5.047,8.019-9.494,14.78-10.4
		c3.316-0.444,6.104,0.626,8.591,2.611c1.471,1.174,1.165,2.272-0.759,2.984c-2.804,1.038-5.641,1.985-8.465,2.97
		C21.632,93.798,21.112,93.848,20.951,94.586z"/>
	<path fill-rule="evenodd" fill="#E8207A" d="M195.705,50.457c-2.382,1.249-4.756,2.516-7.155,3.735
		c-0.755,0.385-1.507,1.14-2.453,0.461c-1.104-0.787-0.729-1.978-0.532-2.945c1.086-5.355,4.787-8.189,9.779-9.43
		c3.896-0.967,7.89-1.282,11.911-0.583c1.867,0.326,2.198,1.593,1.924,3.083c-0.748,4.071-2.914,7.434-5.753,10.322
		c-2.996,3.054-6.512,5.178-11.038,4.906c-0.409-0.023-0.873,0.053-1.215-0.115c-1.115-0.549-2.9-0.382-3.116-1.953
		c-0.192-1.395,1.292-1.893,2.254-2.627c1.947-1.48,4.178-2.584,5.896-4.372c0.473-0.34,1.184-0.391,1.362-1.159
		C196.779,49.592,196.275,50.119,195.705,50.457z"/>
	<path fill-rule="evenodd" fill="#FAE62F" d="M220.758,112.517c-2.719-0.69-5.452-1.337-8.155-2.089
		c-1.049-0.292-2.542-0.222-2.783-1.611c-0.206-1.188,1.014-1.828,1.801-2.463c3.2-2.581,6.847-2.977,10.637-1.66
		c4.587,1.593,8.356,4.464,11.638,7.984c1.374,1.476,1.384,2.859-0.459,4.055c-5.543,3.596-11.466,4.953-17.94,3.124
		c-2.394-0.676-4.17-2.24-5.598-4.196c-0.623-0.852-1.216-1.889-0.566-2.955c0.689-1.13,1.917-0.894,2.916-0.635
		C215,112.784,217.776,113.007,220.758,112.517z"/>
	<path fill-rule="evenodd" fill="#E8207A" d="M20.07,66.827c2.376,2.264,5.283,3.511,8.051,4.997
		c0.667,0.357,1.646,0.408,1.529,1.578c-0.098,0.985-0.81,1.436-1.546,1.734c-2.941,1.191-5.934,1.127-8.812-0.136
		c-4.757-2.081-8.21-5.577-10.438-10.249c-1.239-2.6-0.686-3.77,2.177-4.266c5.55-0.963,11.085-1.276,16.108,1.992
		c2.37,1.544,3.897,3.725,4.001,6.653c0.054,1.503-0.518,2.112-2.14,1.386C26.062,69.203,23.051,68.049,20.07,66.827z"/>
	<path fill-rule="evenodd" fill="#4DB96E" d="M47.246,153.255c2.037,0.383,4.081,0.283,6.174,0.01c1.682-0.22,4.011-1.31,4.814,0.78
		c0.718,1.874-1.237,3.144-2.798,4.13c-4.009,2.533-8.317,2.081-12.592,1.083c-2.552-0.596-4.887-1.86-7.029-3.394
		c-1.376-0.984-2.131-2.411-0.716-3.727c4.95-4.6,10.494-7.846,17.646-6.52c1.456,0.27,2.749,1.061,3.897,1.996
		c0.76,0.619,1.568,1.338,1.331,2.456c-0.262,1.235-1.492,1.229-2.375,1.38c-2.796,0.474-5.62,0.781-8.434,1.15
		C47.192,152.818,47.219,153.037,47.246,153.255z"/>
	<path fill-rule="evenodd" fill="#9DB53C" d="M180.877,26.17c-2.522,0.375-4.568,1.646-6.673,2.791
		c-0.901,0.49-1.87,1.438-2.886,0.583c-0.991-0.834-0.636-1.986-0.301-3.17c1.35-4.767,5.286-6.352,9.347-7.76
		c2.598-0.901,5.342-0.782,8.032-0.613c2.697,0.171,3.41,1.36,2.636,3.917c-1.232,4.064-3.175,7.701-6.438,10.514
		c-2.763,2.379-5.91,3.024-9.364,1.848c-1.639-0.558-2.109-1.486-0.587-2.782C176.723,29.727,178.798,27.946,180.877,26.17z"/>
	<path fill-rule="evenodd" fill="#0FA5D2" d="M110.18,14.094c0.616,2.064,2.282,3.524,3.128,5.46
		c0.781,1.783,0.359,2.485-1.579,2.354c-2.693-0.185-4.537-1.867-5.959-3.904c-2.109-3.019-3.091-6.456-2.902-10.167
		c0.083-1.623,0.59-2.789,2.623-2.764c4.748,0.06,10.581,4.286,11.902,8.789c0.136,0.464,0.259,0.944,0.293,1.423
		c0.095,1.345,0.074,2.91-1.229,3.487c-1.193,0.528-1.994-0.847-2.772-1.633c-1.088-1.102-2.071-2.31-3.1-3.473
		c-0.225-0.138-0.327-0.688-0.676-0.347C109.675,13.547,109.818,13.926,110.18,14.094z"/>
	<path fill-rule="evenodd" fill="#E8207A" d="M67.076,22.027c0.32,2.621,1.359,4.314,1.95,6.152
		c0.256,0.796,0.488,1.664-0.213,2.296c-0.677,0.609-1.485,0.346-2.305,0.081c-4.691-1.523-6.145-7.5-5.557-12.156
		c0.041-0.319,0.243-0.615,0.298-0.935c0.884-5.077,1.956-5.643,6.238-2.805c4.172,2.765,7.461,6.177,6.714,11.829
		c-0.136,1.029-0.295,2.059-1.373,2.364c-1.372,0.39-1.741-0.85-2.291-1.732C69.556,25.543,68.859,23.769,67.076,22.027z"/>
</g>
<g>
	<path fill="none" d="M153.885,233.178c-4.616,4.573-5.062,12.319-1.048,18.302c3.462,5.157,10.102,6.167,14.518,1.903
		c2.828-2.729,4.615-6.165,4.531-10.446c-0.2-2.84-0.786-4.277-1.624-6.226C167.445,230.157,159.654,227.461,153.885,233.178z"/>
	<path fill="none" d="M91.716,234.138c-1.509,4.299-2.733,7.785-3.974,11.316h7.899C94.345,241.716,93.139,238.24,91.716,234.138z"
		/>
	<path fill="none" d="M218.061,235.883c-0.933,3.113-1.866,6.227-2.871,9.581h6.604c-1.037-3.397-1.992-6.531-2.948-9.664
		C218.584,235.827,218.322,235.854,218.061,235.883z"/>
	<path fill="#242E3C" d="M72.917,262.853c0-12.417,0.023-26.923,0.023-39.345h-7.698v15.849H49.438v-15.869h-8.213v38.718
		c-4.563-7.004-8.679-13.319-12.879-19.768c4.105-6.227,8.201-12.438,12.532-19.008H30.702c-3.453,5.167-6.9,10.326-10.252,15.342
		h-4.147v-15.304h-8.59v39.281h8.756v-16.53h3.939c3.559,5.537,7.169,11.156,10.656,16.581h18.601v-15.26h15.805v15.312H72.917z"/>
	<path fill="#242E3C" d="M73.058,262.853h8.796c1.069-3.155,2.106-6.216,3.171-9.358h13.34c1.109,3.086,2.258,6.28,3.388,9.424
		h8.831c-4.82-13.441-9.52-26.545-14.172-39.515h-9.229C82.65,235.927,77.579,250.361,73.058,262.853z M91.716,234.138
		c1.423,4.103,2.629,7.578,3.926,11.316h-7.899C88.982,241.923,90.207,238.437,91.716,234.138z"/>
	<path fill="#242E3C" d="M171.224,225.905c-6.853-5.306-17.925-4.538-23.755,2.886c-2.095,2.666-3.766,6.481-4.32,9.583
		c-0.565,3.164-0.262,5.831,0.002,8.583s1.389,5.547,2.512,7.792c4.781,9.565,18.968,11.849,26.798,4.539
		C181.293,251.042,182.247,234.439,171.224,225.905z M167.354,253.383c-4.416,4.264-11.056,3.254-14.518-1.903
		c-4.015-5.982-3.568-13.729,1.048-18.302c5.77-5.717,13.561-3.021,16.377,3.533c0.838,1.948,1.424,3.386,1.624,6.226
		C171.97,247.218,170.183,250.654,167.354,253.383z"/>
	<path fill="#242E3C" d="M134.685,248.157c-0.172,0.042-0.344,0.085-0.515,0.129c-5.017-8.302-10.033-16.603-14.958-24.751h-7.799
		v39.345h7.559v-23.541c0.175-0.045,0.35-0.09,0.524-0.134c4.771,7.887,9.543,15.773,14.286,23.612h8.648l-0.114-39.316h-7.632
		V248.157z"/>
	<path fill="#242E3C" d="M214.273,223.485c-4.192,13.187-8.341,26.237-12.535,39.429h8.081c0.991-3.138,2.005-6.344,2.962-9.374
		h11.363c1.056,3.268,2.064,6.388,3.026,9.362h7.969v-0.449c-4.144-13.055-8.25-25.987-12.37-38.968H214.273z M215.189,245.464
		c1.005-3.354,1.938-6.468,2.871-9.581c0.262-0.028,0.523-0.056,0.785-0.083c0.956,3.133,1.911,6.267,2.948,9.664H215.189z"/>
	<path fill="#242E3C" d="M197.514,262.814c4.228-13.089,8.422-26.074,12.701-39.322h-8.302c-2.793,8.955-5.566,17.848-8.339,26.739
		c-0.206,0.049-0.411,0.097-0.617,0.146c-2.807-9.02-5.613-18.039-8.371-26.9h-8.389c4.359,13.356,8.644,26.479,12.84,39.338
		H197.514z"/>
</g>
<g>
	<path fill="none" d="M122.736,318.433c7.975,0.26,16.087-7.382,16.009-17.18c-0.072-9.072-6.722-16.466-15.886-16.584
		c-8.921-0.115-15.965,6.939-16.136,16.611C106.55,311.056,114.742,318.706,122.736,318.433z"/>
	<path fill="none" d="M188.955,304.974c-2.026-5.778-3.958-11.288-5.891-16.798c-0.216,0.011-0.431,0.023-0.646,0.034
		c-1.984,5.497-3.969,10.995-6.052,16.764H188.955z"/>
	<path fill="#242E3C" d="M122.662,322.512c11.479,0.681,20.892-9.601,20.7-21.02c-0.202-12.008-8.166-21.006-20.726-20.931
		c-12.188,0.073-20.363,8.659-20.533,20.801C101.94,312.956,111.047,323.034,122.662,322.512z M122.859,284.669
		c9.164,0.118,15.813,7.512,15.886,16.584c0.078,9.798-8.034,17.439-16.009,17.18c-7.994,0.273-16.186-7.377-16.013-17.152
		C106.894,291.608,113.938,284.554,122.859,284.669z"/>
	<path fill="#242E3C" d="M165.871,321.848h4.494c1.577-4.242,3.159-8.499,4.65-12.511h15.489c1.551,4.225,3.094,8.428,4.576,12.462
		h4.735c-5.055-13.869-9.955-27.315-14.831-40.691h-4.592C175.588,294.588,170.763,308.123,165.871,321.848z M183.064,288.176
		c1.933,5.51,3.864,11.02,5.891,16.798h-12.589c2.083-5.769,4.067-11.267,6.052-16.764
		C182.634,288.199,182.849,288.187,183.064,288.176z"/>
	<path fill="#242E3C" d="M78.66,281.17v40.662h4v-19.141h6.29c3.825,6.42,7.604,12.762,11.337,19.029h5.276
		c-3.932-6.583-7.642-12.949-11.537-19.201c-0.92-1.476-0.989-2.404-0.014-3.883c3.726-5.647,7.273-11.414,11.079-17.439h-5.321
		c-3.523,5.756-7.022,11.47-10.465,17.095h-6.835V281.17H78.66z"/>
	<path fill="#242E3C" d="M59.567,317.981c-2.728-0.939-5.26-2.448-7.999-3.755c-0.67,0.932-1.351,1.878-2.173,3.021
		c4.115,4.549,9.204,5.638,14.767,5.249c4.503-0.314,7.907-2.354,9.698-6.658c1.797-4.32,1.181-8.722-2.354-11.645
		c-2.533-2.096-5.708-3.415-8.603-5.069c-2.216-1.267-4.766-2.176-6.557-3.883c-1.355-1.291-2.158-3.352-1.065-5.722
		c1.228-2.664,3.146-4.056,5.847-4.365c3.852-0.443,7.49,0.212,10.498,3.54c0.861-1.664,1.467-2.836,2.02-3.903
		c-3.576-4.146-10.73-5.383-16.053-3.28c-4.55,1.798-7.153,5.008-7.42,9.777c-0.269,4.804,2.496,7.882,6.658,9.898
		c3.366,1.631,6.852,3.099,9.97,5.122c1.455,0.944,2.863,2.941,3.085,4.621C70.598,316.312,65.236,319.936,59.567,317.981z"/>
	<polygon fill="#242E3C" points="147.384,281.178 147.384,321.721 162.585,321.721 162.585,317.721 151.239,317.721 
		151.239,281.178 	"/>
	<path fill="#242E3C" d="M64.573,279.017c1.548-2.287,3.21-4.745,5.074-7.499H65.29c-0.957,1.407-1.833,2.695-2.882,4.238
		c-1.172-1.562-2.206-2.939-3.151-4.199h-4.442c1.817,2.646,3.46,5.041,5.121,7.46H64.573z"/>
</g>
</svg>
