<?xml version="1.0" encoding="utf-8"?>
<!-- Generator: Adobe Illustrator 16.0.0, SVG Export Plug-In . SVG Version: 6.00 Build 0)  -->
<!DOCTYPE svg PUBLIC "-//W3C//DTD SVG 1.1//EN" "http://www.w3.org/Graphics/SVG/1.1/DTD/svg11.dtd">
<svg version="1.1" id="Layer_1" xmlns="http://www.w3.org/2000/svg" xmlns:xlink="http://www.w3.org/1999/xlink" x="0px" y="0px"
	 width="618px" height="618px" viewBox="0 0 618 618" enable-background="new 0 0 618 618" xml:space="preserve">
<g>
	<path fill-rule="evenodd" clip-rule="evenodd" fill="#9B9188" d="M341.284,304.675c-0.009,15.439,0.104,30.88-0.09,46.317
		c-0.047,3.78,0.902,7.286,1.642,10.86c0.379,1.83,1.07,4.118,3.229,4.493c2.509,0.436,3.152-2.12,3.897-3.733
		c5.16-11.169,10.013-22.481,15.224-33.627c6.678-14.284,13.562-28.472,20.45-42.656c1.303-2.684,2.53-5.498,5.436-7.071
		c3.291-1.782,6.776-1.996,9.963-0.472c3.443,1.649,4.651,4.879,4.203,8.754c-1.181,10.19-5.575,19.442-8.5,29.111
		c-7.225,23.888-15.83,47.366-21.845,71.613c-2.914,11.745-0.911,23.271,4.506,33.956c3.772,7.438,7.9,7.736,13.439,1.613
		c5.672-6.271,10.761-13.121,16.827-18.968c10.089-9.722,22.463-11.337,35.588-7.786c5.45,1.475,6.823,6.191,3.093,10.443
		c-2.539,2.895-5.55,5.64-8.868,7.549c-19.422,11.169-30.724,28.631-38.917,48.756c-7.574,18.604-17.244,35.937-32.794,49.232
		c-7.727,6.607-6.234,15.996-6.59,24.14c-0.791,18.104-1.612,36.372,3.401,54.231c1.271,4.53,0.194,7.776-6.081,7.701
		c-24.568-0.296-49.144-0.084-73.716-0.143c-6.708-0.018-7.743-1.569-6.445-8.314c4.12-21.404,5.102-42.973,2.788-64.64
		c-0.641-6.003-4.729-10.59-8.221-15.15c-13.556-17.703-19.721-38.229-22.868-59.787c-5.41-37.066-14.358-73.051-30.802-106.911
		c-1.607-3.311-3.139-6.667-4.504-10.083c-1.95-4.874-3.091-9.965,2.424-13.225c5.235-3.093,9.197,0.27,12.371,3.979
		c6.933,8.107,11.092,18.005,16.818,26.898c5.611,8.716,10.442,18.001,18.243,25.147c1.63,1.492,3.165,3.449,5.551,2.532
		c2.864-1.103,2.337-3.759,2.026-6.173c-1.872-14.529-3.659-29.068-5.603-43.587c-1.46-10.9-3.16-21.779-3.537-32.785
		c-0.205-5.993-2.658-11.834-0.616-18.016c1.529-4.631,3.263-8.609,8.893-8.689c5.702-0.082,7.566,3.733,8.812,8.575
		c6.377,24.775,12.848,49.528,19.476,74.237c1.196,4.459,1.954,11.845,6.147,11.772c5.107-0.087,4.108-7.626,4.983-11.852
		c1.742-8.418,2.378-17.094,3.079-25.694c1.879-23.06,3.487-46.143,5.334-69.206c0.838-10.471,9.627-16.668,16.962-12.134
		c3.86,2.387,5.233,6.077,5.219,10.514C341.262,272.492,341.294,288.583,341.284,304.675z"/>
	<path fill-rule="evenodd" clip-rule="evenodd" fill="#FAE62F" d="M147.578,279.643c0.665,6.208,5.865,9.267,9,13.673
		c3.621,5.088,8.272,9.447,12.518,14.085c1.747,1.909,4.05,3.834,3.118,6.599c-0.875,2.597-4.101,2.685-6.164,2.798
		c-19.547,1.08-36.971-4.004-49.746-19.693c-12.914-15.86-19.015-34.489-20.412-54.78c-1.171-17.011-1.171-17.697,15.834-16.36
		c19.49,1.533,36.323,10.114,51,22.893c10.874,9.468,18.716,20.828,21.458,35.262c1.062,5.596,0.531,11.25,0.314,16.86
		c-0.078,2.028-0.937,4.7-3.235,5.174c-2.428,0.502-4.431-1.344-6.065-3.109C166.969,294.154,157.222,287.04,147.578,279.643z"/>
	<path fill-rule="evenodd" clip-rule="evenodd" fill="#FAE62F" d="M396.677,218.288c-3.959,3.604-8.06,7.066-11.838,10.849
		c-4.293,4.3-8.29,8.895-12.433,13.345c-1.643,1.764-3.357,3.75-6.087,2.765c-2.335-0.841-2.504-3.145-2.895-5.315
		c-5.269-29.225,7.559-52.257,36.812-66.197c10.364-4.939,21.272-8.153,32.461-10.414c8.997-1.818,11.058,0.204,11.778,9.403
		c1.954,24.918-6.4,46.46-22.278,64.989c-10.557,12.319-24.311,19.254-41.201,18.177c-6.058-0.386-7.491-2.814-3.838-7.7
		C384.242,238.716,391.007,229.046,396.677,218.288z"/>
	<path fill-rule="evenodd" clip-rule="evenodd" fill="#EE3E24" d="M300.439,170.477c-4.215,13.752-5.777,27.103-7.431,40.432
		c-0.186,1.502,0.006,3.071-0.317,4.534c-1.377,6.252-4.464,7.101-9.306,2.649c-16.192-14.89-20.525-34.45-12.1-56.705
		c6.223-16.436,16.273-30.404,28.874-42.597c3.939-3.812,7.571-3.735,11.014,0.505c10.667,13.136,16.844,28.25,19.668,44.837
		c2.129,12.507,2.222,24.868-2.559,36.89c-3.749,9.427-10.035,16.602-19.182,21.074c-6.434,3.146-8.404,1.743-8.445-5.313
		c-0.074-13.035,2.335-25.973,1.451-39.028C301.966,175.688,302.803,173.455,300.439,170.477z"/>
	<path fill-rule="evenodd" clip-rule="evenodd" fill="#4DB96E" d="M224.953,235.943c1.21,11.04,3.627,21.879,5.986,32.717
		c0.561,2.58,1.797,5.452-0.348,7.293c-2.454,2.108-5.354,0.249-7.848-0.945c-22.285-10.672-33.419-31.672-30.651-58.034
		c1.462-13.916,5.202-26.904,11.412-39.277c3.193-6.361,6.505-7.505,12.486-3.591c25.498,16.687,40.314,39.741,40.329,70.848
		c0.004,9.15-3.554,17.601-8.82,25.204c-1.286,1.855-2.763,3.751-5.014,3.683c-2.869-0.086-3.48-2.862-4.264-5.064
		c-3.917-11.01-7.783-22.038-11.667-33.059C226.021,235.793,225.487,235.868,224.953,235.943z"/>
	<path fill-rule="evenodd" clip-rule="evenodd" fill="#EE3E24" d="M159.368,378.342c7.157,7.474,14.269,14.989,21.489,22.399
		c3.633,3.729,7.722,7.042,11.129,10.957c3.006,3.452,1.695,6.339-2.887,7.172c-9.816,1.783-19.464,0.854-28.212-3.901
		c-22.729-12.356-35.808-32.253-42.682-56.627c-1.332-4.725-2.025-9.666-2.615-14.554c-0.574-4.761,1.586-7.71,6.706-7.051
		c27.134,3.49,52.943,10.295,72.285,31.488c9.209,10.091,11.085,22.589,9.566,35.691c-0.491,4.233-3.649,4.739-7.62,1.473
		c-9.856-8.107-19.664-16.275-29.552-24.346c-1.924-1.569-4.121-2.808-6.192-4.198C160.312,377.345,159.84,377.843,159.368,378.342z
		"/>
	<path fill-rule="evenodd" clip-rule="evenodd" fill="#4DB96E" d="M524.211,419.759c-10.938-6.653-21.918-11.854-33.007-16.892
		c-3.54-1.608-9.144-1.963-9.264-6.858c-0.123-5.062,5.396-6.411,9.081-8.181c19.475-9.343,36.669-3.559,52.042,9.332
		c11.854,9.939,21.51,21.928,28.452,35.897c3.201,6.443,2.505,9.075-3.878,11.675c-22.604,9.206-45.344,9.614-67.745-0.47
		c-11.746-5.287-19.876-14.34-23.604-26.892c-0.914-3.076-1.844-6.705,0.626-9.237c2.562-2.627,5.757-0.38,8.51,0.53
		c10.808,3.571,21.557,7.318,32.334,10.976C519.588,420.26,521.465,420.645,524.211,419.759z"/>
	<path fill-rule="evenodd" clip-rule="evenodd" fill="#0EA5D2" d="M128.578,163.919c10.244,8.474,20.823,16.171,31.979,23.139
		c2.879,1.798,7.69,2.869,6.967,7.534c-0.66,4.255-5.274,4.852-8.509,6.038c-16.824,6.177-35.986,0.654-49.159-14.054
		c-10.887-12.157-19.114-25.945-24.468-41.401c-2.901-8.376-2.099-10.506,6.387-12.272c27.729-5.769,53.108-1.516,74.266,18.788
		c7.022,6.738,9.615,15.663,10.72,24.958c0.767,6.452-2.954,8.827-8.646,5.693c-12.045-6.63-23.998-13.418-36.836-18.471
		C130.411,163.528,129.785,163.21,128.578,163.919z"/>
	<path fill-rule="evenodd" clip-rule="evenodd" fill="#0EA4D2" d="M463.367,338.441c-13.31,2.882-24.974,5.404-36.634,7.948
		c-0.624,0.137-1.218,0.659-1.814,0.641c-2.54-0.077-5.776,1.538-7.44-0.664c-1.768-2.335-0.271-5.329,1.006-7.904
		c4.875-9.834,12.912-16.407,22.96-19.781c21.198-7.121,42.342-6.475,62.851,2.999c6.311,2.914,7.231,5.785,2.87,10.931
		c-13.688,16.142-28.887,30.542-50.251,35.767c-11.925,2.917-23.568,1.763-33.624-6.349c-1.632-1.318-4.087-2.617-3.466-5.028
		c0.545-2.12,2.843-2.786,5.029-3.502c9.959-3.26,19.825-6.809,29.71-10.292C457.139,342.298,459.856,341.643,463.367,338.441z"/>
	<path fill-rule="evenodd" clip-rule="evenodd" fill="#4DB96E" d="M378.782,108.084c-4.691,9.281-7.44,19.3-10.14,29.346
		c-0.704,2.624-0.763,6.102-3.905,6.967c-3.302,0.909-4.989-2.322-6.637-4.353c-9.703-11.958-10.237-25.378-4.515-38.934
		c6.267-14.845,16.631-26.729,29.478-36.414c3.753-2.828,7.196-2.588,9.845,1.593c8.795,13.878,12.815,28.9,11.453,45.419
		c-0.9,10.922-4.086,20.646-12.053,28.492c-3.149,3.102-6.973,5.137-10.907,6.889c-1.898,0.846-4.325,1.353-6.208-0.251
		c-1.978-1.685-1.175-3.814-0.67-6.001C376.989,130.138,378.054,119.232,378.782,108.084z"/>
	<path fill-rule="evenodd" clip-rule="evenodd" fill="#E81F79" d="M454.08,474.625c-7.128-4.817-15.005-8.178-22.854-11.626
		c-2.18-0.958-5.192-1.333-5.225-4.932c-0.032-3.537,2.87-4.134,5.044-5.134c17.796-8.195,34.059-4.726,48.66,7.384
		c8.698,7.215,15.744,15.987,20.799,26.232c2.452,4.969,1.8,8.57-3.842,10.668c-22.502,8.363-43.912,6.679-63.795-7.218
		c-5.612-3.923-8.773-10.004-11.401-16.252c-0.883-2.098-1.229-4.452,0.008-6.229c1.531-2.205,3.925-0.902,5.96-0.336
		C436.273,469.643,444.681,473.585,454.08,474.625z"/>
	<path fill-rule="evenodd" clip-rule="evenodd" fill="#FAE62F" d="M228.777,121.748c2.217,9.514,7.532,16.725,10.812,24.81
		c0.981,2.418,4.037,4.825,1.407,7.549c-2.355,2.44-5.781,1.529-8.605,0.743c-15.149-4.213-24.354-14.532-27.846-29.478
		c-2.975-12.732-2.574-25.732-0.329-38.657c0.95-5.467,4.243-7.057,8.874-5.217c22.038,8.756,39.329,22.245,45.412,46.634
		c1.569,6.291-0.286,12.084-2.745,17.547c-2.649,5.885-6.237,5.722-9.76,0.12c-4.365-6.94-8.74-13.872-13.117-20.803
		C232.064,123.705,231.173,122.486,228.777,121.748z"/>
	<path fill-rule="evenodd" clip-rule="evenodd" fill="#4DB96E" d="M570.345,255.652c-11.288,0.87-20.633,3.175-29.897,5.849
		c-2.914,0.839-6.348,2.277-8.348-0.442c-1.795-2.439-0.501-5.75,0.798-8.6c3.908-8.584,10.624-14.201,19.325-17.021
		c17.876-5.791,35.229-3.711,52.022,4.505c4.674,2.286,5.95,5.517,3.453,9.894c-9.584,16.807-21.888,30.524-41.674,35.258
		c-9.71,2.324-18.38-0.647-26.107-6.318c-4.745-3.482-4.122-6.281,1.444-8.688C550.729,266.037,560.693,263.215,570.345,255.652z"/>
	<path fill-rule="evenodd" clip-rule="evenodd" fill="#FAE62F" d="M198.571,484.199c9.744-3.39,18.453-6.349,27.1-9.479
		c2.134-0.772,4.024-1.706,5.909,0.359c1.745,1.912,1.097,3.751,0.456,5.995c-4.836,16.922-16.949,22.111-32.593,23.825
		c-10.599,1.159-21.067-0.836-31.335-3.737c-5.42-1.533-6.954-4.461-4.575-9.644c7.693-16.76,19.702-28.851,37.702-33.947
		c7.394-2.094,15.045-1.646,22.007,2.252c1.987,1.112,4.367,2.312,4.436,5.183c0.075,3.135-2.705,3.667-4.702,4.716
		c-6.685,3.511-13.444,6.881-20.187,10.28C201.271,480.768,199.629,481.35,198.571,484.199z"/>
	<path fill-rule="evenodd" clip-rule="evenodd" fill="#EE3E24" d="M471.683,259.617c-7.382,3.647-13.228,9.45-19.828,14.192
		c-2.132,1.531-4.196,3.702-6.898,2.629c-3.203-1.273-2.015-4.583-1.815-6.938c1.121-13.289,8.261-22.714,19.505-29.35
		c11.153-6.583,23.576-8.839,36.157-10.302c5.059-0.589,7.762,2.011,7.03,7.424c-2.197,16.26-10.051,29.491-21.678,40.746
		c-7.449,7.213-16.012,11.33-26.667,10.474c-2.937-0.235-6.106-0.487-7.253-3.185c-1.269-2.988,1.573-5.024,3.596-6.874
		c6.396-5.847,13.103-11.363,18.86-17.881c0.421-0.583,0.843-1.168,1.265-1.752C472.871,258.163,472.133,258.486,471.683,259.617z"
		/>
	<path fill-rule="evenodd" clip-rule="evenodd" fill="#0FA5D2" d="M62.251,371.842c4.337,0,8.792,0.629,12.98-0.159
		c5.203-0.979,10.338-0.198,15.485-0.446c6.719-0.322,7.965,2.617,4.007,8.346c-7.379,10.685-18.138,14.48-30.471,13.021
		c-12.766-1.513-24.422-6.641-35.034-13.901c-6.271-4.289-6.935-7.421-1.818-12.453c14.769-14.529,31.928-22.627,53.223-17.763
		c5.184,1.185,9.329,4.337,12.9,8.224c1.644,1.787,3.416,3.714,2.307,6.293c-0.983,2.286-3.378,2.166-5.574,2.466
		c-9.386,1.28-18.745,2.758-28.114,4.162C62.179,370.367,62.215,371.104,62.251,371.842z"/>
	<path fill-rule="evenodd" clip-rule="evenodd" fill="#EE3E25" d="M42.984,289.61c9.188,1.327,17.829-1.559,26.585-2.846
		c2.186-0.321,4.431-1.487,5.965,0.458c1.743,2.208,0.885,4.706-0.24,7.223c-4.444,9.938-13.092,14.515-22.842,15.849
		c-14.272,1.953-28.271,0.117-41.074-7.583c-4.861-2.923-5.767-6.719-2.748-10.752c9.967-13.318,21.154-25.048,38.993-27.438
		c8.748-1.172,16.102,1.65,22.664,6.888c3.879,3.095,3.072,5.997-2.002,7.874c-7.397,2.737-14.882,5.24-22.331,7.836
		C44.78,287.529,43.408,287.661,42.984,289.61z"/>
	<path fill-rule="evenodd" clip-rule="evenodd" fill="#E8207A" d="M504.014,173.188c-6.286,3.293-12.549,6.635-18.874,9.852
		c-1.994,1.015-3.978,3.007-6.477,1.222c-2.911-2.08-1.919-5.224-1.402-7.775c2.864-14.131,12.628-21.604,25.8-24.876
		c10.277-2.552,20.814-3.38,31.425-1.538c4.924,0.855,5.798,4.202,5.074,8.132c-1.977,10.74-7.689,19.61-15.174,27.233
		c-7.911,8.059-17.187,13.658-29.124,12.944c-1.078-0.065-2.305,0.139-3.204-0.306c-2.943-1.45-7.651-1.008-8.22-5.149
		c-0.506-3.682,3.403-5,5.944-6.933c5.138-3.91,11.02-6.817,15.556-11.535c1.246-0.897,3.124-1.033,3.593-3.058
		C506.852,170.907,505.519,172.298,504.014,173.188z"/>
	<path fill-rule="evenodd" clip-rule="evenodd" fill="#FAE62F" d="M570.111,336.912c-7.179-1.818-14.388-3.527-21.519-5.511
		c-2.769-0.77-6.707-0.581-7.344-4.25c-0.543-3.131,2.674-4.819,4.752-6.495c8.443-6.81,18.061-7.854,28.062-4.381
		c12.099,4.202,22.046,11.775,30.704,21.068c3.622,3.889,3.646,7.541-1.214,10.693c-14.621,9.484-30.247,13.066-47.328,8.244
		c-6.316-1.785-11.002-5.916-14.771-11.073c-1.64-2.247-3.205-4.983-1.491-7.796c1.816-2.982,5.056-2.355,7.689-1.673
		C554.915,337.615,562.241,338.205,570.111,336.912z"/>
	<path fill-rule="evenodd" clip-rule="evenodd" fill="#E8207A" d="M40.66,216.38c6.271,5.969,13.936,9.258,21.239,13.178
		c1.76,0.945,4.341,1.075,4.035,4.167c-0.257,2.596-2.135,3.786-4.079,4.573c-7.759,3.143-15.653,2.971-23.248-0.355
		c-12.547-5.495-21.66-14.716-27.534-27.042c-3.269-6.858-1.81-9.941,5.743-11.252c14.642-2.541,29.244-3.368,42.494,5.258
		c6.253,4.071,10.282,9.824,10.556,17.552c0.141,3.963-1.367,5.57-5.646,3.656C56.467,222.647,48.524,219.602,40.66,216.38z"/>
	<path fill-rule="evenodd" clip-rule="evenodd" fill="#4DB96E" d="M112.354,444.387c5.374,1.009,10.766,0.748,16.289,0.026
		c4.437-0.579,10.583-3.453,12.701,2.063c1.896,4.938-3.263,8.287-7.381,10.889c-10.576,6.683-21.943,5.492-33.22,2.86
		c-6.732-1.571-12.892-4.912-18.544-8.954c-3.631-2.598-5.622-6.359-1.889-9.83c13.058-12.134,27.684-20.697,46.555-17.202
		c3.838,0.712,7.25,2.799,10.282,5.268c2.003,1.631,4.136,3.53,3.511,6.48c-0.69,3.26-3.935,3.243-6.267,3.639
		c-7.376,1.251-14.827,2.06-22.249,3.039C112.211,443.238,112.283,443.812,112.354,444.387z"/>
	<path fill-rule="evenodd" clip-rule="evenodd" fill="#9DB53C" d="M464.893,109.117c-6.655,0.986-12.048,4.343-17.604,7.363
		c-2.376,1.293-4.933,3.793-7.609,1.541c-2.615-2.201-1.68-5.241-0.794-8.365c3.562-12.576,13.942-16.757,24.652-20.472
		c6.857-2.377,14.1-2.064,21.194-1.616c7.117,0.45,8.998,3.586,6.953,10.333c-3.249,10.721-8.375,20.317-16.988,27.738
		c-7.285,6.277-15.588,7.978-24.705,4.873c-4.316-1.469-5.561-3.921-1.546-7.337C453.938,118.5,459.411,113.804,464.893,109.117z"/>
	<path fill-rule="evenodd" clip-rule="evenodd" fill="#0FA5D2" d="M278.387,77.259c1.622,5.446,6.018,9.299,8.252,14.405
		c2.058,4.701,0.947,6.557-4.166,6.208c-7.105-0.486-11.969-4.925-15.724-10.298c-5.566-7.966-8.154-17.033-7.656-26.823
		c0.218-4.283,1.557-7.36,6.923-7.292c12.522,0.159,27.913,11.306,31.398,23.186c0.359,1.224,0.681,2.491,0.769,3.755
		c0.25,3.548,0.2,7.678-3.24,9.198c-3.149,1.393-5.261-2.234-7.311-4.309c-2.874-2.908-5.466-6.095-8.18-9.163
		c-0.593-0.364-0.863-1.814-1.784-0.915C277.052,75.816,277.427,76.815,278.387,77.259z"/>
	<path fill-rule="evenodd" clip-rule="evenodd" fill="#E8207A" d="M164.669,98.188c0.845,6.914,3.588,11.382,5.145,16.231
		c0.675,2.1,1.287,4.39-0.564,6.057c-1.785,1.607-3.918,0.914-6.079,0.213c-12.378-4.019-16.212-19.788-14.66-32.071
		c0.106-0.841,0.639-1.624,0.786-2.466c2.332-13.395,5.158-14.888,16.458-7.399c11.006,7.294,19.684,16.297,17.712,31.208
		c-0.359,2.713-0.781,5.431-3.623,6.237c-3.62,1.027-4.593-2.243-6.043-4.572C171.211,107.465,169.375,102.782,164.669,98.188z"/>
</g>
</svg>
