<?xml version="1.0" encoding="utf-8"?>
<!-- Generator: Adobe Illustrator 16.0.0, SVG Export Plug-In . SVG Version: 6.00 Build 0)  -->
<svg version="1.2" baseProfile="tiny" xmlns="http://www.w3.org/2000/svg" xmlns:xlink="http://www.w3.org/1999/xlink" x="0px"
	 y="0px" width="1732.562px" height="306px" viewBox="0 0 1732.562 306" xml:space="preserve">
<g id="Layer_2" display="none">
	<rect display="inline" fill-rule="evenodd" fill="#242E3C" width="1733" height="306"/>
</g>
<g id="Layer_1">
	<g>
		<path fill-rule="evenodd" fill="#FFFFFF" d="M677.443,244.853c-11.999,0-22.268,0-33.523,0
			c-4.288-11.931-8.648-24.06-12.86-35.773c-17.345,0-33.634,0-50.641,0c-4.042,11.931-7.978,23.548-12.037,35.525
			c-20.307,0-40.776,0-62.201,0c0-19.393,0-38.312,0-58.129c-20.154,0-39.39,0-59.997,0c0,18.838,0,38.05,0,57.929
			c-24.086,0-46.831,0-70.613,0c-13.235-20.593-26.942-41.922-40.451-62.942c-5.107,0-9.587,0-14.954,0c0,20.917,0,41.397,0,62.752
			c-11.348,0-21.821,0-33.242,0c0-49.218,0-98.88,0-149.121c10.71,0,21.18,0,32.611,0c0,19.402,0,38.33,0,58.098
			c5.635,0,10.356,0,15.743,0c12.725-19.043,25.809-38.624,38.918-58.241c12.071,0,24.166,0,38.629,0
			c-16.443,24.939-31.99,48.521-47.574,72.158c15.947,24.478,31.567,48.452,48.892,75.041c0-50.779,0-98.566,0-146.981
			c10.798,0,20.507,0,31.178,0c0,19.94,0,39.631,0,60.244c20.149,0,39.386,0,59.994,0c0-19.52,0-39.493,0-60.164
			c10.286,0,19.234,0,29.225,0c0,47.153-0.088,102.221-0.088,149.357h0.537c17.163-47.417,36.413-102.215,53.619-149.755
			c11.542,0,22.572,0,35.034,0C641.301,144.085,659.144,193.828,677.443,244.853z M590.733,178.559c10.189,0,19.491,0,29.986,0
			c-4.921-14.192-9.499-27.385-14.902-42.959C600.088,151.918,595.44,165.15,590.733,178.559z"/>
		<path fill-rule="evenodd" fill="#FFFFFF" d="M801.065,151.681c2.104-11.773,8.449-26.26,16.398-36.379
			c22.136-28.181,64.164-31.097,90.178-10.956c41.849,32.401,38.226,95.426,4.696,126.727
			c-29.726,27.752-83.579,19.084-101.731-17.229c-4.262-8.523-8.532-19.134-9.533-29.582
			C800.071,173.815,798.918,163.691,801.065,151.681z M910.158,169.002c-0.76-10.783-2.986-16.239-6.165-23.634
			c-10.692-24.88-40.27-35.116-62.172-13.413c-17.524,17.362-19.218,46.766-3.979,69.476c13.141,19.579,38.348,23.412,55.112,7.228
			C903.689,198.298,910.477,185.253,910.158,169.002z"/>
		<path fill-rule="evenodd" fill="#FFFFFF" d="M798.341,244.472c-11.548,0-22.09,0-32.833,0
			c-18.004-29.757-36.117-59.696-54.23-89.635c-0.664,0.165-1.328,0.337-1.992,0.507c0,29.452,0,58.903,0,89.365
			c-10.59,0-19.267,0-28.696,0c0-49.768,0-99.147,0-149.361c9.607,0,19.331,0,29.607,0c18.697,30.936,37.74,62.447,56.783,93.961
			c0.652-0.166,1.304-0.328,1.955-0.491c0-30.972,0-61.943,0-93.599c10.039,0,18.985,0,28.975,0"/>
		<path fill-rule="evenodd" fill="#FFFFFF" d="M1054.158,244.838c-10.678,0-20.169,0-30.674,0
			c15.919-50.077,31.67-99.62,47.583-149.677c10.714,0,21.188,0,32.254,0c15.822,49.844,31.584,99.493,47.5,149.633
			c-10.202,0-19.695,0-30.79,0c-3.652-11.292-7.481-23.138-11.492-35.539c-14.399,0-28.341,0-43.134,0
			C1061.769,220.757,1057.921,232.929,1054.158,244.838z M1074.544,178.594c8.956,0,16.312,0,25.07,0
			c-3.934-12.896-7.561-24.791-11.191-36.684c-0.992,0.103-1.985,0.207-2.979,0.312
			C1081.902,154.042,1078.361,165.862,1074.544,178.594z"/>
		<path fill-rule="evenodd" fill="#FFFFFF" d="M1024.145,95.186c10.712,0,20.441,0,31.516,0
			c-16.244,50.292-32.167,99.59-48.217,149.276c-10.418,0-20.215,0-32.177,0c-15.932-48.816-32.195-98.631-48.744-149.336
			c10.89,0,20.652,0,31.845,0c10.471,33.64,21.125,67.881,31.781,102.122c0.78-0.186,1.56-0.37,2.34-0.555
			C1003.015,162.938,1013.542,129.183,1024.145,95.186z"/>
		<path fill-rule="evenodd" fill="#FFFFFF" d="M1433.807,249.683c-44.094,1.982-78.665-36.278-78.046-80.288
			c0.646-46.094,31.681-78.688,77.947-78.965c47.681-0.283,77.911,33.871,78.679,79.458
			C1513.114,213.233,1477.379,252.264,1433.807,249.683z M1434.086,234.195c30.275,0.984,61.07-28.023,60.775-65.218
			c-0.275-34.438-25.517-62.506-60.307-62.954c-33.865-0.438-60.607,26.343-61.257,63.058
			C1372.643,206.191,1403.741,235.233,1434.086,234.195z"/>
		<path fill-rule="evenodd" fill="#FFFFFF" d="M1726.697,246.975c-6.819,0-11.722,0-17.977,0
			c-5.627-15.315-11.482-31.271-17.372-47.307c-19.341,0-37.979,0-58.8,0c-5.659,15.229-11.668,31.39-17.652,47.491
			c-5.622,0-10.539,0-17.063,0c18.573-52.099,36.89-103.483,55.132-154.658c6.327,0,11.233,0,17.43,0
			C1688.904,143.281,1707.508,194.326,1726.697,246.975z M1663.102,119.334c-0.817,0.043-1.634,0.09-2.451,0.131
			c-7.534,20.87-15.066,41.739-22.976,63.639c16.679,0,31.625,0,47.793,0C1677.772,161.168,1670.438,140.252,1663.102,119.334z"/>
		<path fill-rule="evenodd" fill="#FFFFFF" d="M1281.949,247.102c-6.144,0-10.284,0-15.185,0c0-51.479,0-102.68,0-154.361
			c4.811,0,9.185,0,14.46,0c0,21.692,0,42.903,0,64.998c8.998,0,17.124,0,25.947,0c13.072-21.352,26.353-43.043,39.729-64.893
			c6.141,0,12.388,0,20.199,0c-14.445,22.871-27.909,44.761-42.056,66.202c-3.702,5.611-3.44,9.137,0.053,14.738
			c14.785,23.735,28.871,47.903,43.797,72.892c-7.215,0-13.449,0-20.03,0c-14.174-23.791-28.516-47.866-43.036-72.235
			c-7.437,0-15.004,0-23.878,0C1281.949,198.42,1281.949,222.204,1281.949,247.102z"/>
		<path fill-rule="evenodd" fill="#FFFFFF" d="M1155.674,229.699c3.122-4.339,5.706-7.933,8.249-11.469
			c10.396,4.96,20.009,10.686,30.365,14.252c21.52,7.418,41.872-6.336,39.168-26.765c-0.844-6.378-6.19-13.959-11.714-17.543
			c-11.837-7.681-25.068-13.251-37.848-19.442c-15.8-7.658-26.293-19.342-25.274-37.579c1.014-18.104,10.896-30.291,28.168-37.116
			c20.208-7.983,47.367-3.283,60.941,12.453c-2.099,4.053-4.401,8.502-7.669,14.816c-11.419-12.632-25.23-15.121-39.851-13.438
			c-10.252,1.177-17.536,6.458-22.197,16.574c-4.147,8.999-1.1,16.816,4.044,21.721c6.799,6.479,16.479,9.93,24.892,14.736
			c10.99,6.282,23.044,11.29,32.661,19.244c13.419,11.098,15.759,27.803,8.935,44.205c-6.798,16.338-19.718,24.082-36.813,25.278
			C1190.611,251.1,1171.297,246.967,1155.674,229.699z"/>
		<path fill-rule="evenodd" fill="#FFFFFF" d="M1527.654,246.677c0-51.683,0-102.599,0-153.907c4.999,0,9.377,0,14.636,0
			c0,46.144,0,91.769,0,138.725c14.689,0,28.573,0,43.072,0c0,5.702,0,10.083,0,15.183
			C1566.479,246.677,1547.591,246.677,1527.654,246.677z"/>
		<path fill-rule="evenodd" fill="#FFFFFF" d="M1213.289,84.566c-7.62,0-12.53,0-17.605,0c-6.305-9.184-12.544-18.271-19.44-28.321
			c6.184,0,11.282,0,16.863,0c3.591,4.785,7.513,10.012,11.964,15.939c3.979-5.854,7.307-10.746,10.938-16.087
			c4.58,0,9.406,0,16.54,0C1225.477,66.552,1219.164,75.883,1213.289,84.566z"/>
	</g>
	<g>
		<path fill="#9B9188" d="M199.985,250.715c8.266-7.067,13.406-16.28,17.432-26.169c4.355-10.698,10.363-19.979,20.687-25.917
			c1.764-1.015,3.364-2.474,4.714-4.013c1.982-2.26,1.253-4.768-1.644-5.551c-6.977-1.888-13.554-1.029-18.917,4.139
			c-3.225,3.108-5.93,6.749-8.944,10.083c-2.944,3.255-5.139,3.096-7.144-0.858c-2.879-5.679-3.944-11.807-2.396-18.05
			c3.197-12.889,7.772-25.368,11.612-38.065c1.555-5.139,3.891-10.058,4.519-15.474c0.238-2.06-0.404-3.777-2.234-4.653
			c-1.694-0.81-3.546-0.696-5.296,0.251c-1.544,0.836-2.197,2.332-2.889,3.758c-3.662,7.54-7.321,15.082-10.871,22.674
			c-2.77,5.924-5.349,11.937-8.092,17.875c-0.396,0.857-0.738,2.216-2.072,1.984c-1.147-0.199-1.515-1.416-1.716-2.389
			c-0.393-1.899-0.897-3.763-0.873-5.772c0.103-8.206,0.043-16.414,0.048-24.62c0.005-8.554-0.012-17.107,0.015-25.66
			c0.008-2.358-0.722-4.32-2.773-5.589c-3.899-2.41-8.571,0.884-9.016,6.45c-0.982,12.259-1.836,24.529-2.835,36.787
			c-0.373,4.571-0.71,9.183-1.637,13.658c-0.465,2.246,0.066,6.253-2.649,6.3c-2.229,0.038-2.632-3.888-3.268-6.258
			c-3.523-13.134-6.962-26.292-10.353-39.461c-0.662-2.573-1.653-4.601-4.684-4.558c-2.993,0.042-3.915,2.158-4.727,4.619
			c-1.085,3.286,0.219,6.391,0.328,9.577c0.2,5.85,1.103,11.632,1.879,17.426c1.033,7.717,1.983,15.446,2.978,23.168
			c0.166,1.283,0.446,2.696-1.077,3.282c-1.269,0.487-2.084-0.554-2.951-1.347c-4.146-3.799-6.715-8.734-9.697-13.367
			c-3.043-4.728-5.254-9.988-8.939-14.298c-1.688-1.972-3.793-3.759-6.576-2.115c-2.932,1.732-2.325,4.438-1.289,7.029
			c0.726,1.816,1.54,3.6,2.395,5.36c8.74,17.998,13.497,37.125,16.372,56.828c1.673,11.459,4.95,22.369,12.156,31.779
			c1.856,2.425,4.029,4.863,4.37,8.054c1.23,11.518,0.708,22.982-1.482,34.359c-0.69,3.586-0.14,4.41,3.426,4.42
			c13.061,0.031,26.125-0.081,39.184,0.076c3.335,0.04,3.908-1.686,3.232-4.095c-2.665-9.492-2.228-19.203-1.808-28.826
			C196.671,259.218,195.878,254.228,199.985,250.715z"/>
		<path fill="#FAE62F" d="M97.625,139.08c0.868,0.938,1.933,1.92,3.224,1.653c1.222-0.252,1.678-1.672,1.719-2.75
			c0.115-2.982,0.397-5.988-0.167-8.962c-1.458-7.673-5.626-13.711-11.406-18.744c-7.801-6.792-16.749-11.354-27.109-12.169
			c-9.04-0.71-9.04-0.347-8.417,8.696c0.742,10.786,3.985,20.688,10.851,29.119c6.79,8.339,16.052,11.042,26.442,10.468
			c1.097-0.06,2.811-0.107,3.276-1.487c0.495-1.469-0.729-2.493-1.657-3.508c-2.257-2.465-4.729-4.782-6.654-7.487
			c-1.667-2.342-4.431-3.968-4.784-7.268C88.069,130.573,93.251,134.355,97.625,139.08z"/>
		<path fill="#FAE62F" d="M234.5,64.81c-5.948,1.202-11.746,2.91-17.255,5.536c-15.549,7.41-22.368,19.653-19.567,35.188
			c0.208,1.153,0.297,2.378,1.539,2.825c1.451,0.523,2.362-0.532,3.235-1.47c2.202-2.365,4.327-4.808,6.608-7.093
			c2.008-2.011,4.188-3.851,6.292-5.767c-3.014,5.719-6.61,10.859-10.375,15.895c-1.942,2.598-1.18,3.887,2.04,4.093
			c8.979,0.572,16.289-3.114,21.901-9.663c8.439-9.849,12.881-21.3,11.842-34.544C240.377,64.918,239.282,63.844,234.5,64.81z"/>
		<path fill="#EE3E24" d="M168.801,96.052c4.862-2.377,8.204-6.19,10.196-11.202c2.541-6.391,2.492-12.96,1.36-19.609
			c-1.501-8.817-4.785-16.851-10.455-23.833c-1.83-2.253-3.76-2.295-5.854-0.269c-6.698,6.481-12.041,13.906-15.348,22.643
			c-4.479,11.83-2.176,22.228,6.432,30.142c2.574,2.366,4.215,1.915,4.947-1.408c0.172-0.778,0.069-1.612,0.168-2.41
			c0.879-7.085,1.709-14.182,3.95-21.492c1.256,1.583,0.811,2.77,0.886,3.869c0.47,6.939-0.811,13.816-0.771,20.746
			C164.333,96.979,165.381,97.724,168.801,96.052z"/>
		<path fill="#4DB96E" d="M122.898,124.177c1.325,0.635,2.867,1.624,4.171,0.503c1.14-0.979,0.483-2.506,0.185-3.876
			c-1.254-5.761-2.539-11.522-3.182-17.391c0.284-0.04,0.567-0.08,0.851-0.12c2.064,5.858,4.119,11.721,6.202,17.573
			c0.417,1.17,0.741,2.646,2.266,2.692c1.197,0.037,1.981-0.971,2.666-1.958c2.799-4.041,4.69-8.533,4.688-13.396
			c-0.008-16.536-7.883-28.79-21.437-37.66c-3.18-2.081-4.94-1.473-6.637,1.908c-3.301,6.578-5.289,13.481-6.065,20.879
			C105.134,107.343,111.052,118.505,122.898,124.177z"/>
		<path fill="#EE3E24" d="M90.018,198.574c4.65,2.528,9.778,3.021,14.996,2.073c2.436-0.442,3.133-1.977,1.535-3.812
			c-1.811-2.081-3.984-3.843-5.916-5.824c-3.838-3.939-7.618-7.934-11.423-11.906c0.251-0.266,0.501-0.53,0.753-0.796
			c1.1,0.739,2.268,1.397,3.291,2.231c5.256,4.29,10.469,8.632,15.708,12.941c2.11,1.736,3.79,1.468,4.05-0.783
			c0.807-6.964-0.19-13.607-5.085-18.972c-10.281-11.266-24-14.882-38.423-16.737c-2.721-0.351-3.87,1.218-3.564,3.747
			c0.313,2.599,0.682,5.225,1.39,7.736C70.984,181.43,77.936,192.007,90.018,198.574z"/>
		<path fill="#4DB96E" d="M258.002,194.941c-1.31,1.343-0.82,3.266-0.335,4.898l2.69-5.428
			C259.535,194.191,258.722,194.204,258.002,194.941z"/>
		<path fill="#4DB96E" d="M260.674,188.496c0.028,1.16,0.638,1.839,1.469,2.312l3.286-6.628
			C263.471,185.105,260.61,185.838,260.674,188.496z"/>
		<path fill="#0EA5D2" d="M53.281,48.641c-4.511,0.939-4.937,2.071-3.395,6.523c2.845,8.216,7.218,15.545,13.005,22.007
			c7.002,7.818,17.188,10.754,26.131,7.47c1.719-0.63,4.172-0.947,4.522-3.209c0.385-2.479-2.173-3.049-3.703-4.004
			c-5.93-3.704-11.553-7.795-16.999-12.3c0.642-0.376,0.975-0.208,1.437-0.026c6.825,2.686,13.178,6.294,19.58,9.818
			c3.026,1.666,5.003,0.404,4.596-3.026c-0.587-4.941-1.966-9.685-5.698-13.266C81.511,47.835,68.021,45.574,53.281,48.641z"/>
		<path fill="#0EA4D2" d="M274.083,154.796c2.318-2.735,1.829-4.261-1.525-5.81c-10.902-5.036-22.141-5.379-33.409-1.594
			c-5.341,1.794-9.613,5.288-12.204,10.516c-0.679,1.368-1.475,2.959-0.535,4.201c0.885,1.17,2.605,0.312,3.955,0.353
			c0.317,0.01,0.633-0.269,0.965-0.341c6.198-1.353,12.397-2.692,19.473-4.225c-1.866,1.702-3.311,2.05-4.68,2.533
			c-5.254,1.852-10.499,3.737-15.792,5.47c-1.162,0.381-2.383,0.734-2.673,1.861c-0.33,1.282,0.975,1.973,1.842,2.673
			c5.345,4.312,11.534,4.926,17.873,3.375C258.728,171.03,266.807,163.377,274.083,154.796z"/>
		<path fill="#4DB96E" d="M208.116,12.386c-6.828,5.148-12.338,11.465-15.668,19.356c-3.042,7.206-2.758,14.339,2.399,20.696
			c0.876,1.08,1.773,2.797,3.528,2.314c1.67-0.46,1.701-2.309,2.075-3.704c1.436-5.34,2.896-10.666,5.39-15.599
			c-0.387,5.925-0.953,11.723-2.264,17.41c-0.269,1.163-0.695,2.294,0.356,3.19c1.001,0.853,2.291,0.583,3.3,0.133
			c2.092-0.932,4.124-2.013,5.798-3.662c4.235-4.171,5.928-9.34,6.407-15.145c0.724-8.781-1.413-16.767-6.088-24.143
			C211.941,11.01,210.111,10.883,208.116,12.386z"/>
		<path fill="#E81F79" d="M231.701,226.329c-1.082-0.302-2.354-0.994-3.167,0.179c-0.657,0.944-0.474,2.195-0.004,3.311
			c1.397,3.321,3.077,6.554,6.06,8.639c1.938,1.354,3.903,2.485,5.893,3.41l3.99-11.789
			C240.03,229.332,235.958,227.514,231.701,226.329z"/>
		<path fill="#E81F79" d="M249.114,217.094c-4.887-1.289-10.054-0.844-15.493,1.661c-1.155,0.531-2.698,0.848-2.681,2.729
			c0.017,1.913,1.619,2.112,2.777,2.621c3.737,1.642,7.483,3.251,10.947,5.408l3.67-10.847L249.114,217.094z"/>
		<path fill="#FAE62F" d="M117.766,21.317c-2.461-0.978-4.212-0.133-4.717,2.773c-1.193,6.871-1.406,13.781,0.175,20.548
			c1.856,7.944,6.749,13.43,14.802,15.669c1.501,0.417,3.323,0.902,4.574-0.396c1.398-1.448-0.226-2.727-0.748-4.012
			c-1.744-4.298-4.569-8.131-5.747-13.188c1.273,0.392,1.747,1.04,2.18,1.727c2.327,3.684,4.652,7.369,6.972,11.058
			c1.874,2.978,3.781,3.064,5.189-0.063c1.307-2.904,2.293-5.984,1.459-9.328C138.671,33.142,129.48,25.971,117.766,21.317z"/>
		<path fill="#FAE62F" d="M93.855,244.391c5.458,1.543,11.021,2.603,16.656,1.987c8.315-0.911,14.754-3.67,17.325-12.665
			c0.341-1.192,0.685-2.17-0.243-3.187c-1.001-1.098-2.006-0.602-3.14-0.191c-4.596,1.664-9.226,3.237-14.405,5.039
			c0.563-1.515,1.436-1.824,2.241-2.23c3.584-1.808,7.177-3.599,10.73-5.465c1.062-0.558,2.539-0.841,2.5-2.506
			c-0.036-1.526-1.301-2.165-2.358-2.756c-3.7-2.071-7.767-2.31-11.697-1.196c-9.568,2.709-15.951,9.136-20.041,18.044
			C90.159,242.02,90.974,243.576,93.855,244.391z"/>
		<path fill="#EE3E24" d="M269.638,100.172c-6.688,0.778-13.291,1.977-19.22,5.477c-5.977,3.527-9.772,8.538-10.368,15.601
			c-0.106,1.252-0.738,3.012,0.965,3.688c1.437,0.57,2.534-0.583,3.667-1.397c3.508-2.521,6.616-5.605,10.54-7.543
			c0.239-0.601,0.632-0.773,1.208-0.435c-0.224,0.311-0.448,0.622-0.672,0.932c-3.061,3.465-6.625,6.397-10.026,9.504
			c-1.075,0.983-2.585,2.066-1.911,3.654c0.609,1.435,2.294,1.568,3.856,1.693c5.664,0.455,10.214-1.733,14.175-5.567
			c6.18-5.982,10.354-13.016,11.522-21.659C273.763,101.241,272.327,99.859,269.638,100.172z"/>
		<path fill="#0FA5D2" d="M20.028,179.296c5.641,3.859,11.837,6.585,18.623,7.39c6.556,0.776,12.274-1.242,16.197-6.921
			c2.104-3.045,1.441-4.608-2.13-4.437c-2.736,0.132-5.465-0.283-8.231,0.237c-2.226,0.419-4.594,0.085-6.899,0.085
			c-0.02-0.392-0.038-0.784-0.058-1.176c4.979-0.747,9.955-1.532,14.943-2.213c1.168-0.159,2.44-0.096,2.964-1.311
			c0.589-1.371-0.353-2.396-1.227-3.345c-1.898-2.066-4.102-3.742-6.856-4.371c-11.319-2.587-20.44,1.718-28.291,9.441
			C16.342,175.352,16.695,177.016,20.028,179.296z"/>
		<path fill="#EE3E25" d="M10.545,138.903c6.806,4.093,14.247,5.069,21.833,4.031c5.183-0.709,9.78-3.142,12.142-8.425
			c0.598-1.337,1.054-2.665,0.127-3.839c-0.815-1.034-2.008-0.414-3.17-0.244c-4.654,0.684-9.248,2.218-14.131,1.513
			c0.226-1.036,0.955-1.106,1.58-1.324c3.958-1.38,7.938-2.71,11.869-4.166c2.697-0.998,3.126-2.54,1.064-4.186
			c-3.488-2.784-7.397-4.284-12.047-3.661c-9.482,1.27-15.429,7.506-20.727,14.585C7.48,135.332,7.962,137.35,10.545,138.903z"/>
		<path fill="#E8207A" d="M288.605,57.769c-5.64-0.98-11.241-0.539-16.704,0.817c-7.001,1.739-12.192,5.711-13.714,13.223
			c-0.275,1.356-0.802,3.027,0.745,4.133c1.328,0.949,2.383-0.111,3.443-0.65c3.362-1.71,6.691-3.486,10.033-5.237
			c0.8-0.474,1.508-1.212,2.613-0.95c-0.249,1.076-1.248,1.149-1.91,1.625c-2.411,2.508-5.538,4.053-8.269,6.132
			c-1.351,1.028-3.429,1.728-3.16,3.685c0.302,2.201,2.805,1.966,4.369,2.737c0.478,0.236,1.13,0.127,1.703,0.162
			c6.346,0.379,11.276-2.597,15.481-6.88c3.978-4.052,7.015-8.768,8.066-14.476C291.687,60.001,291.222,58.223,288.605,57.769z"/>
		<path fill="#E8207A" d="M41.636,96.245c-0.146-4.108-2.288-7.166-5.612-9.331c-7.043-4.585-14.805-4.145-22.587-2.794
			c-4.015,0.697-4.79,2.335-3.052,5.981c3.122,6.552,7.965,11.453,14.636,14.374c4.037,1.768,8.232,1.859,12.357,0.188
			c1.033-0.418,2.032-1.051,2.168-2.431c0.163-1.644-1.209-1.712-2.145-2.215c-3.882-2.084-7.957-3.832-11.29-7.005
			c4.181,1.713,8.402,3.332,12.524,5.175C40.909,99.206,41.71,98.352,41.636,96.245z"/>
		<path fill="#4DB96E" d="M48.19,217.871c3.004,2.148,6.278,3.925,9.857,4.76c5.994,1.399,12.036,2.031,17.658-1.521
			c2.189-1.383,4.931-3.164,3.923-5.788c-1.126-2.933-4.393-1.405-6.751-1.097c-2.936,0.384-5.802,0.522-8.659-0.014
			c-0.038-0.307-0.075-0.61-0.113-0.916c3.945-0.521,7.906-0.95,11.826-1.615c1.24-0.21,2.964-0.201,3.331-1.934
			c0.333-1.568-0.801-2.578-1.866-3.445c-1.611-1.312-3.424-2.422-5.465-2.8c-10.031-1.858-17.805,2.694-24.746,9.145
			C45.202,214.49,46.26,216.49,48.19,217.871z"/>
		<path fill="#9DB53C" d="M265.854,30.036c1.087-3.586,0.087-5.253-3.696-5.492c-3.771-0.238-7.621-0.405-11.266,0.859
			c-5.693,1.975-11.211,4.197-13.104,10.882c-0.471,1.661-0.968,3.276,0.422,4.446c1.423,1.198,2.782-0.131,4.044-0.819
			c2.954-1.605,5.82-3.39,9.358-3.914c-2.914,2.492-5.823,4.988-8.742,7.472c-2.134,1.816-1.473,3.119,0.822,3.9
			c4.846,1.65,9.26,0.746,13.132-2.591C261.403,40.835,264.127,35.734,265.854,30.036z"/>
		<path fill="#0FA5D2" d="M162.59,18.737c-1.853-6.315-10.034-12.24-16.69-12.325c-2.852-0.037-3.564,1.599-3.68,3.875
			c-0.265,5.205,1.11,10.024,4.069,14.258c1.996,2.856,4.582,5.216,8.358,5.474c2.718,0.186,3.308-0.8,2.214-3.299
			c-1.188-2.714-3.524-4.762-4.387-7.657c-0.51-0.235-0.709-0.767-0.381-1.087c0.49-0.479,0.634,0.292,0.948,0.486
			c1.442,1.631,2.821,3.325,4.348,4.871c1.089,1.102,2.212,3.03,3.886,2.29c1.829-0.808,1.855-3.003,1.722-4.889
			C162.951,20.061,162.781,19.387,162.59,18.737z"/>
		<path fill="#E8207A" d="M92.605,19.858c-6.006-3.98-7.509-3.187-8.748,3.933c-0.078,0.448-0.361,0.863-0.418,1.311
			c-0.825,6.529,1.213,14.91,7.792,17.046c1.149,0.373,2.283,0.742,3.231-0.112c0.984-0.886,0.659-2.104,0.3-3.22
			c-0.828-2.578-2.286-4.953-2.735-8.628c2.502,2.442,3.478,4.932,4.854,7.143c0.771,1.239,1.288,2.977,3.212,2.431
			c1.511-0.429,1.735-1.874,1.926-3.316C103.069,28.521,98.456,23.735,92.605,19.858z"/>
	</g>
</g>
</svg>
