<?xml version="1.0" encoding="utf-8"?>
<!-- Generator: Adobe Illustrator 16.0.0, SVG Export Plug-In . SVG Version: 6.00 Build 0)  -->
<!DOCTYPE svg PUBLIC "-//W3C//DTD SVG 1.1//EN" "http://www.w3.org/Graphics/SVG/1.1/DTD/svg11.dtd">
<svg version="1.1" id="Layer_1" xmlns="http://www.w3.org/2000/svg" xmlns:xlink="http://www.w3.org/1999/xlink" x="0px" y="0px"
	 width="256px" height="256px" viewBox="0 0 256 256" enable-background="new 0 0 256 256" xml:space="preserve">
<g>
	<linearGradient id="SVGID_1_" gradientUnits="userSpaceOnUse" x1="124.4116" y1="99.0044" x2="124.4116" y2="9.2832">
		<stop  offset="0" style="stop-color:#3D3C3C"/>
		<stop  offset="0.0323" style="stop-color:#3B3939"/>
		<stop  offset="0.276" style="stop-color:#2D2A2B"/>
		<stop  offset="0.5631" style="stop-color:#252223"/>
		<stop  offset="1" style="stop-color:#231F20"/>
	</linearGradient>
	<path fill-rule="evenodd" clip-rule="evenodd" fill="url(#SVGID_1_)" d="M107.44,9.283H93.994l-9.067,34.873L75.483,9.283H61.492
		c2.8,8.229,5.721,16.507,8.526,24.744c4.262,12.384,6.923,21.72,8.125,28.097v35.963h13.301V62.125L107.44,9.283z M142.98,76.665
		V53.483c0-7.071-1.21-12.244-3.722-15.589c-3.321-4.519-7.979-6.783-13.991-6.783c-5.973,0-10.645,2.264-13.961,6.783
		c-2.549,3.346-3.755,8.518-3.755,15.589v23.182c0,7.031,1.207,12.244,3.755,15.565c3.316,4.511,7.988,6.774,13.961,6.774
		c6.012,0,10.67-2.263,13.991-6.774C141.771,88.909,142.98,83.696,142.98,76.665z M130.984,78.921c0,6.122-1.85,9.187-5.717,9.187
		c-3.87,0-5.726-3.065-5.726-9.187V51.079c0-6.122,1.855-9.17,5.726-9.17c3.867,0,5.717,3.048,5.717,9.17V78.921z M187.33,98.087
		V31.912h-11.998V82.49c-2.656,3.759-5.177,5.618-7.571,5.618c-1.61,0-2.548-0.95-2.812-2.809c-0.144-0.389-0.144-1.851-0.144-4.668
		V31.912h-11.954v52.329c0,4.668,0.4,7.841,1.061,9.84c1.196,3.354,3.86,4.923,7.724,4.923c4.371,0,8.928-2.66,13.697-8.137v7.22
		H187.33z"/>
	
		<linearGradient id="SVGID_2_" gradientUnits="userSpaceOnUse" x1="89.7559" y1="185.5098" x2="89.7559" y2="48.6514" gradientTransform="matrix(-1 0 0 1 217.7559 61.3242)">
		<stop  offset="0" style="stop-color:#6D0D13"/>
		<stop  offset="0.6179" style="stop-color:#AB2624"/>
		<stop  offset="1" style="stop-color:#CD332D"/>
	</linearGradient>
	<path fill-rule="evenodd" clip-rule="evenodd" fill="url(#SVGID_2_)" d="M226.179,178.409c0,15.31-0.02,31.542-3.445,46.415
		c-2.395,10.441-10.942,18.141-21.22,19.289c-24.351,2.718-48.995,2.736-73.528,2.718c-24.537,0.019-49.181,0-73.528-2.718
		c-10.282-1.148-18.816-8.848-21.216-19.289c-3.42-14.873-3.42-31.105-3.42-46.415l0,0c0-15.317,0.037-31.543,3.461-46.423
		c2.396-10.436,10.935-18.135,21.217-19.284c24.347-2.726,48.991-2.735,73.528-2.726c24.534-0.009,49.177,0,73.526,2.726
		c10.278,1.149,18.822,8.849,21.22,19.284C226.197,146.866,226.179,163.092,226.179,178.409L226.179,178.409z"/>
	<linearGradient id="SVGID_3_" gradientUnits="userSpaceOnUse" x1="127.9995" y1="221.791" x2="127.9995" y2="132.9951">
		<stop  offset="0" style="stop-color:#D5D5D2"/>
		<stop  offset="0.1554" style="stop-color:#E3E3E1"/>
		<stop  offset="0.3993" style="stop-color:#F3F3F2"/>
		<stop  offset="0.6668" style="stop-color:#FCFCFC"/>
		<stop  offset="1" style="stop-color:#FFFFFF"/>
	</linearGradient>
	<path fill-rule="evenodd" clip-rule="evenodd" fill="url(#SVGID_3_)" d="M85.827,145.371v-12.376H44.456v12.376h13.959v75.519
		h13.198v-75.519H85.827z M109.806,220.89v-7.146c-4.713,5.41-9.195,8.047-13.557,8.047c-3.825,0-6.46-1.554-7.646-4.875
		c-0.652-1.982-1.045-5.105-1.045-9.731V155.4h11.86v48.215c0,2.775,0,4.229,0.111,4.608c0.285,1.844,1.189,2.777,2.776,2.777
		c2.379,0,4.87-1.835,7.501-5.552V155.4h11.876v65.489H109.806z M154.894,202.169c0,5.914-1.738,8.832-5.163,8.832
		c-1.95,0-3.929-0.934-5.911-2.918v-39.919c1.982-1.95,3.961-2.883,5.911-2.883c3.425,0,5.163,3.031,5.163,8.938V202.169z
		 M166.758,201.235v-26.082c0-6.195-0.407-10.524-1.193-13.16c-1.587-4.908-4.76-7.394-9.488-7.394
		c-4.364,0-8.428,2.388-12.257,7.104v-28.709h-11.867v87.895h11.867v-6.353c3.961,4.906,8.039,7.254,12.257,7.254
		c4.729,0,7.901-2.488,9.488-7.36C166.351,211.653,166.758,207.293,166.758,201.235z M199.682,180.426h-11.866v-6.057
		c0-6.057,1.983-9.088,5.949-9.088c3.93,0,5.917,3.031,5.917,9.088V180.426z M211.543,199.939v-1.735h-12.11
		c0,4.759-0.148,7.394-0.256,8.039c-0.678,3.171-2.385,4.758-5.306,4.758c-4.072,0-6.056-3.023-6.056-9.088v-11.606h23.728V176.74
		c0-6.997-1.19-12.111-3.671-15.425c-3.322-4.486-8.047-6.716-14.001-6.716c-6.056,0-10.785,2.229-14.208,6.716
		c-2.524,3.313-3.667,8.428-3.667,15.425v22.941c0,6.958,1.29,12.129,3.81,15.402c3.431,4.467,8.15,6.707,14.363,6.707
		c6.198,0,11.063-2.348,14.351-7.097c1.437-2.106,2.371-4.487,2.772-7.113C211.398,206.391,211.543,203.756,211.543,199.939z"/>
</g>
</svg>
