<?xml version="1.0" encoding="utf-8"?>
<!-- Generator: Adobe Illustrator 16.0.0, SVG Export Plug-In . SVG Version: 6.00 Build 0)  -->
<!DOCTYPE svg PUBLIC "-//W3C//DTD SVG 1.1//EN" "http://www.w3.org/Graphics/SVG/1.1/DTD/svg11.dtd">
<svg version="1.1" id="Layer_1" xmlns="http://www.w3.org/2000/svg" xmlns:xlink="http://www.w3.org/1999/xlink" x="0px" y="0px"
	 width="265px" height="56.75px" viewBox="0 0 265 56.75" enable-background="new 0 0 265 56.75" xml:space="preserve">
<path fill="#9FCC3B" d="M80.574,10.852H59.575v4.75h7.374V35.79h6.25V15.602h7.375V10.852 M88.886,10.852L80.471,35.79h6.266
	l1.549-5.063h7.861l1.549,5.063h6.431l-8.415-24.938H88.886z M89.667,26.165l2.549-8.24l2.55,8.24H89.667z M122.251,25.138
	l-7.973-14.286h-7.683V35.79h5.719V18.406l9.635,17.384h6.021V10.852h-5.719V25.138z M149.98,12.812
	c-1.342-0.86-2.776-1.401-4.308-1.625c-1.529-0.223-3.172-0.335-4.925-0.335h-7.739V35.79h7.808c1.718,0,3.342-0.12,4.865-0.36
	c1.524-0.24,2.935-0.778,4.23-1.616c1.552-0.982,2.837-2.392,3.853-4.229c1.018-1.837,1.525-3.916,1.525-6.239
	c0-2.411-0.475-4.507-1.424-6.289C152.916,15.277,151.62,13.862,149.98,12.812z M148.019,27.431
	c-0.534,1.136-1.315,2.026-2.341,2.671c-0.869,0.546-1.786,0.844-2.75,0.894s-2.146,0.075-3.552,0.075h-0.117V15.509h0.117
	c1.292,0,2.405,0.022,3.334,0.067c0.932,0.044,1.821,0.3,2.667,0.768c1.17,0.657,2.036,1.567,2.6,2.73
	c0.562,1.163,0.846,2.563,0.846,4.199C148.822,24.91,148.554,26.296,148.019,27.431z M158.97,35.79h16.875v-4.75H165.22v-6.313
	h9.781v-4.75h-9.781v-4.375h10.625v-4.75H158.97V35.79z M198.324,10.852l-5.509,12.302l-5.525-12.302h-7.229V35.79h5.906V19.254
	l4.537,10.661h4.271l4.536-10.661V35.79h6.25V10.852H198.324z"/>
<path fill="#6D6E71" d="M210.52,35.79h5.938v-6.594h-5.938V35.79z M237.124,11.021c-0.724-0.201-1.484-0.358-2.275-0.469
	c-0.793-0.112-1.686-0.168-2.679-0.168c-3.739,0-6.71,1.175-8.914,3.525c-2.204,2.35-3.306,5.501-3.306,9.453
	c0,4.097,1.1,7.276,3.297,9.537c2.2,2.261,5.168,3.392,8.907,3.392c1.192,0,2.13-0.062,2.812-0.185
	c0.681-0.123,1.411-0.301,2.192-0.535c0.636-0.189,1.255-0.421,1.858-0.694c0.602-0.274,1.133-0.517,1.591-0.729V28.29h-0.569
	c-0.312,0.275-0.68,0.588-1.104,0.94c-0.424,0.351-0.915,0.698-1.473,1.038c-0.512,0.33-1.143,0.63-1.89,0.899
	c-0.747,0.269-1.535,0.404-2.359,0.404c-0.793,0-1.588-0.14-2.385-0.416c-0.796-0.277-1.52-0.728-2.166-1.35
	c-0.67-0.644-1.211-1.49-1.623-2.539c-0.413-1.049-0.619-2.345-0.619-3.889c0-1.465,0.197-2.736,0.594-3.813
	c0.396-1.076,0.906-1.931,1.531-2.564c0.68-0.699,1.397-1.191,2.15-1.474c0.753-0.283,1.581-0.425,2.484-0.425
	c0.758,0,1.485,0.125,2.184,0.373c0.696,0.248,1.335,0.549,1.915,0.903c0.58,0.353,1.099,0.715,1.556,1.085s0.836,0.687,1.138,0.952
	h0.637v-5.952c-0.413-0.212-0.954-0.464-1.623-0.755C238.314,11.418,237.695,11.189,237.124,11.021z M250.249,31.04l11.458-15.438
	v-4.75h-18.5v4.75h10.888l-11.48,15.521v4.667h19.75v-4.75H250.249z"/>
<path fill="#6D6E71" d="M66.974,50.074c0,0.881-0.05,1.475-0.15,1.781c-0.101,0.307-0.276,0.553-0.528,0.737
	c-0.251,0.185-0.531,0.277-0.839,0.277c-0.234,0-0.473-0.054-0.717-0.16c-0.372-0.161-0.838-0.438-1.4-0.832l-0.569,0.851
	c0.511,0.425,0.977,0.721,1.398,0.89c0.422,0.168,0.849,0.252,1.282,0.252c0.575,0,1.064-0.13,1.468-0.392
	c0.405-0.259,0.693-0.607,0.866-1.044c0.173-0.435,0.259-1.21,0.259-2.323v-7.249h-1.07V50.074 M80.771,42.862l-5.078,10.741h1.198
	l1.669-3.53h4.644l1.678,3.53h1.163l-5.008-10.741H80.771z M79.051,49.034l1.846-3.904l1.836,3.904H79.051z M93.267,42.862v1.039
	h4.051l-4.535,9.702h5.93V52.55h-4.275l4.501-9.688H93.267z M109.989,47.314l-2.754-4.452h-1.239l3.469,5.608v5.133h1.063v-5.133
	l3.406-5.608h-1.233L109.989,47.314z M128.511,42.862h-1.434l-4.312,4.031v-4.031h-1.094v10.741h1.094v-4.998l4.7,4.998h1.444
	l-5.567-5.922L128.511,42.862z M141.609,42.596c-1.003,0-1.938,0.25-2.8,0.748c-0.861,0.5-1.543,1.189-2.042,2.069
	c-0.5,0.881-0.75,1.837-0.75,2.868c0,1.547,0.55,2.865,1.645,3.954c1.097,1.09,2.441,1.635,4.035,1.635
	c1.574,0,2.906-0.547,4.001-1.643c1.093-1.094,1.641-2.427,1.641-3.999c0-1.585-0.549-2.921-1.644-4.006
	C144.598,43.138,143.237,42.596,141.609,42.596z M145.633,50.561c-0.396,0.701-0.951,1.253-1.661,1.657
	c-0.71,0.403-1.48,0.605-2.314,0.605c-1.249,0-2.316-0.438-3.202-1.317c-0.884-0.878-1.327-1.954-1.327-3.229
	c0-0.861,0.199-1.642,0.6-2.344c0.399-0.699,0.956-1.257,1.669-1.671c0.712-0.413,1.466-0.62,2.261-0.62
	c0.809,0,1.575,0.207,2.297,0.62c0.722,0.414,1.282,0.965,1.679,1.654c0.398,0.688,0.598,1.458,0.598,2.309
	C146.23,49.082,146.031,49.86,145.633,50.561z M159.387,51.172l-3.565-8.31h-1.168l4.608,10.741h0.234l4.672-10.741H163
	L159.387,51.172z M177.165,39.761h-1.571l-1.593,2.25h1.009L177.165,39.761z M171.954,53.604h6.11V52.55h-5.039v-4.211h5.039v-1.055
	h-5.039v-3.367h5.086v-1.055h-6.157V53.604z M202.906,42.862h-1.435l-4.312,4.031v-4.031h-1.093v10.741h1.093v-4.998l4.701,4.998
	h1.443l-5.566-5.922L202.906,42.862z M216.96,49.344c0,0.847-0.037,1.406-0.109,1.679c-0.103,0.379-0.264,0.702-0.482,0.971
	c-0.219,0.267-0.492,0.477-0.818,0.627c-0.326,0.151-0.668,0.227-1.022,0.227c-0.41,0-0.816-0.096-1.221-0.289
	c-0.403-0.191-0.704-0.43-0.898-0.715c-0.195-0.285-0.319-0.638-0.373-1.062c-0.029-0.189-0.044-0.669-0.044-1.438v-6.481h-1.07
	v6.481c0,1.09,0.066,1.845,0.197,2.264c0.209,0.682,0.623,1.229,1.241,1.643c0.617,0.413,1.359,0.62,2.226,0.62
	c0.798,0,1.479-0.219,2.04-0.657c0.563-0.438,0.937-0.953,1.124-1.544s0.282-1.367,0.282-2.325v-6.481h-1.071V49.344z
	 M231.843,48.272c0.513-0.227,0.905-0.562,1.181-1.007c0.274-0.443,0.412-0.958,0.412-1.544c0-0.702-0.199-1.292-0.599-1.772
	c-0.398-0.48-0.918-0.794-1.555-0.94c-0.424-0.098-1.232-0.146-2.425-0.146h-2.141v10.741h1.07V48.62h0.604l3.867,4.983h1.333
	l-3.867-4.983C230.625,48.615,231.331,48.499,231.843,48.272z M227.787,47.565v-3.648h1.896c0.736,0,1.265,0.063,1.581,0.189
	c0.317,0.127,0.573,0.337,0.769,0.632c0.195,0.294,0.293,0.621,0.293,0.981c0,0.369-0.096,0.704-0.289,1.002
	c-0.193,0.3-0.462,0.518-0.805,0.654c-0.345,0.136-0.875,0.204-1.593,0.204L227.787,47.565z M241.298,42.862v1.039h4.05
	l-4.533,9.702h5.929V52.55h-4.274l4.501-9.688H241.298z M260.732,42.862l-2.714,4.452l-2.754-4.452h-1.237l3.468,5.608v5.133h1.062
	v-5.133l3.406-5.608H260.732z"/>
<path fill="#6D6E71" d="M27.673,7.332C26.637,10.678,24.16,23.58,39.661,41.2l8.113-28.055L27.673,7.332"/>
<path fill="#9FCC3B" d="M18.667,11.031c0.196-2.439,0.44-4.448,0.722-6.096l-7.761-2.244L1.175,38.838L37.32,49.292l1.747-6.04
	C31.694,39.679,17.127,30.142,18.667,11.031"/>
</svg>
