<?xml version="1.0" encoding="utf-8"?>
<!-- Generator: Adobe Illustrator 16.0.0, SVG Export Plug-In . SVG Version: 6.00 Build 0)  -->
<!DOCTYPE svg PUBLIC "-//W3C//DTD SVG 1.1//EN" "http://www.w3.org/Graphics/SVG/1.1/DTD/svg11.dtd">
<svg version="1.1" id="Layer_1" xmlns="http://www.w3.org/2000/svg" xmlns:xlink="http://www.w3.org/1999/xlink" x="0px" y="0px"
	 width="1018px" height="153px" viewBox="0 0 1018 153" enable-background="new 0 0 1018 153" xml:space="preserve">
<g>
	<path fill-rule="evenodd" clip-rule="evenodd" fill="#242E3C" d="M281.817,139.847c-8.338,0-15.475,0-23.297,0
		c-2.98-8.291-6.01-16.72-8.937-24.86c-12.054,0-23.374,0-35.193,0c-2.809,8.291-5.544,16.364-8.365,24.688
		c-14.113,0-28.338,0-43.227,0c0-13.478,0-26.626,0-40.397c-14.006,0-27.374,0-41.695,0c0,13.092,0,26.443,0,40.258
		c-16.739,0-32.545,0-49.072,0c-9.198-14.312-18.724-29.134-28.112-43.742c-3.549,0-6.663,0-10.392,0c0,14.536,0,28.77,0,43.61
		c-7.886,0-15.165,0-23.102,0c0-34.204,0-68.718,0-103.633c7.443,0,14.719,0,22.663,0c0,13.484,0,26.638,0,40.375
		c3.916,0,7.197,0,10.941,0c8.843-13.233,17.936-26.842,27.046-40.475c8.389,0,16.794,0,26.846,0
		c-11.427,17.332-22.231,33.72-33.062,50.146c11.082,17.011,21.938,33.672,33.978,52.15c0-35.29,0-68.499,0-102.146
		c7.504,0,14.251,0,21.667,0c0,13.857,0,27.541,0,41.867c14.003,0,27.372,0,41.693,0c0-13.565,0-27.446,0-41.812
		c7.148,0,13.367,0,20.311,0c0,32.77-0.062,71.039-0.062,103.797h0.373c11.927-32.953,25.305-71.035,37.263-104.073
		c8.021,0,15.687,0,24.347,0C256.7,69.817,269.1,104.388,281.817,139.847z M221.558,93.775c7.081,0,13.545,0,20.839,0
		c-3.42-9.863-6.601-19.031-10.356-29.854C228.059,75.262,224.829,84.458,221.558,93.775z"/>
	<path fill-rule="evenodd" clip-rule="evenodd" fill="#242E3C" d="M367.729,75.097c1.462-8.182,5.872-18.249,11.396-25.281
		c15.383-19.585,44.591-21.611,62.669-7.614c29.083,22.517,26.565,66.316,3.264,88.069c-20.658,19.286-58.083,13.263-70.699-11.974
		c-2.961-5.924-5.929-13.297-6.625-20.558C367.038,90.479,366.236,83.444,367.729,75.097z M443.543,87.134
		c-0.528-7.493-2.075-11.285-4.284-16.424c-7.431-17.291-27.985-24.404-43.207-9.322c-12.178,12.066-13.355,32.501-2.765,48.283
		c9.132,13.606,26.65,16.271,38.3,5.022C439.048,107.493,443.765,98.428,443.543,87.134z"/>
	<path fill-rule="evenodd" clip-rule="evenodd" fill="#242E3C" d="M365.835,139.582c-8.025,0-15.352,0-22.817,0
		c-12.512-20.68-25.1-41.486-37.688-62.292c-0.461,0.115-0.923,0.234-1.384,0.353c0,20.468,0,40.936,0,62.104
		c-7.36,0-13.39,0-19.942,0c0-34.586,0-68.903,0-103.799c6.676,0,13.434,0,20.576,0c12.993,21.499,26.227,43.397,39.461,65.298
		c0.453-0.114,0.906-0.228,1.358-0.341c0-21.524,0-43.048,0-65.047c6.976,0,13.194,0,20.136,0"/>
	<path fill-rule="evenodd" clip-rule="evenodd" fill="#242E3C" d="M543.616,139.837c-7.421,0-14.017,0-21.317,0
		c11.063-34.802,22.01-69.231,33.068-104.019c7.445,0,14.725,0,22.415,0c10.995,34.639,21.949,69.143,33.01,103.987
		c-7.09,0-13.688,0-21.397,0c-2.538-7.847-5.199-16.079-7.986-24.697c-10.007,0-19.695,0-29.977,0
		C548.905,123.102,546.231,131.561,543.616,139.837z M557.784,93.8c6.224,0,11.336,0,17.423,0
		c-2.734-8.963-5.255-17.229-7.777-25.493c-0.689,0.071-1.38,0.144-2.07,0.217C562.897,76.737,560.437,84.952,557.784,93.8z"/>
	<path fill-rule="evenodd" clip-rule="evenodd" fill="#242E3C" d="M522.759,35.835c7.444,0,14.206,0,21.902,0
		c-11.289,34.951-22.354,69.21-33.509,103.74c-7.24,0-14.049,0-22.361,0c-11.072-33.925-22.374-68.544-33.875-103.781
		c7.568,0,14.353,0,22.131,0c7.276,23.378,14.681,47.174,22.086,70.97c0.542-0.129,1.084-0.257,1.626-0.385
		C508.074,82.92,515.391,59.462,522.759,35.835z"/>
	<path fill-rule="evenodd" clip-rule="evenodd" fill="#242E3C" d="M807.455,143.203c-30.644,1.378-54.669-25.211-54.238-55.796
		c0.449-32.033,22.016-54.685,54.17-54.877c33.136-0.197,54.145,23.539,54.678,55.22
		C862.57,117.873,837.735,144.997,807.455,143.203z M807.649,132.44c21.039,0.685,42.44-19.475,42.235-45.323
		c-0.191-23.933-17.732-43.438-41.91-43.75c-23.535-0.305-42.119,18.307-42.57,43.822
		C764.948,112.979,786.561,133.162,807.649,132.44z"/>
	<path fill-rule="evenodd" clip-rule="evenodd" fill="#242E3C" d="M1011,141.321c-4.739,0-8.146,0-12.493,0
		c-3.909-10.644-7.979-21.732-12.072-32.876c-13.44,0-26.394,0-40.863,0c-3.933,10.583-8.108,21.814-12.268,33.004
		c-3.907,0-7.324,0-11.857,0c12.906-36.206,25.636-71.916,38.312-107.479c4.397,0,7.808,0,12.114,0
		C984.736,69.26,997.665,104.733,1011,141.321z M966.805,52.617c-0.568,0.03-1.136,0.062-1.704,0.091
		c-5.235,14.504-10.471,29.008-15.966,44.227c11.59,0,21.977,0,33.213,0C977,81.69,971.903,67.154,966.805,52.617z"/>
	<path fill-rule="evenodd" clip-rule="evenodd" fill="#242E3C" d="M701.921,141.409c-4.27,0-7.147,0-10.553,0
		c0-35.775,0-71.356,0-107.273c3.343,0,6.383,0,10.05,0c0,15.075,0,29.816,0,45.171c6.253,0,11.9,0,18.031,0
		c9.085-14.839,18.313-29.913,27.609-45.098c4.268,0,8.609,0,14.038,0C751.058,50.103,741.7,65.316,731.87,80.216
		c-2.573,3.899-2.392,6.35,0.036,10.243c10.275,16.494,20.063,33.29,30.437,50.655c-5.013,0-9.347,0-13.92,0
		c-9.85-16.533-19.817-33.265-29.908-50.2c-5.168,0-10.427,0-16.594,0C701.921,107.578,701.921,124.107,701.921,141.409z"/>
	<path fill-rule="evenodd" clip-rule="evenodd" fill="#242E3C" d="M614.165,129.316c2.17-3.017,3.966-5.514,5.733-7.971
		c7.225,3.447,13.905,7.426,21.102,9.904c14.955,5.155,29.1-4.403,27.221-18.601c-0.586-4.432-4.303-9.7-8.141-12.191
		c-8.227-5.338-17.422-9.209-26.303-13.512c-10.98-5.321-18.272-13.44-17.564-26.115c0.704-12.582,7.572-21.051,19.575-25.794
		c14.044-5.548,32.918-2.281,42.352,8.654c-1.459,2.816-3.059,5.908-5.33,10.297c-7.935-8.778-17.533-10.509-27.693-9.34
		c-7.125,0.818-12.188,4.488-15.427,11.519c-2.882,6.254-0.764,11.687,2.811,15.095c4.726,4.503,11.452,6.901,17.299,10.241
		c7.638,4.366,16.015,7.847,22.697,13.374c9.326,7.713,10.952,19.322,6.21,30.721c-4.725,11.354-13.703,16.736-25.584,17.566
		C638.445,144.188,625.022,141.316,614.165,129.316z"/>
	<path fill-rule="evenodd" clip-rule="evenodd" fill="#242E3C" d="M872.675,141.114c0-35.917,0-71.301,0-106.958
		c3.474,0,6.517,0,10.171,0c0,32.067,0,63.774,0,96.407c10.208,0,19.857,0,29.934,0c0,3.963,0,7.007,0,10.551
		C899.656,141.114,886.529,141.114,872.675,141.114z"/>
	<path fill-rule="evenodd" clip-rule="evenodd" fill="#242E3C" d="M654.205,28.455c-5.295,0-8.708,0-12.235,0
		c-4.381-6.383-8.717-12.698-13.51-19.682c4.297,0,7.841,0,11.72,0c2.495,3.325,5.221,6.958,8.313,11.077
		c2.767-4.068,5.078-7.468,7.603-11.18c3.183,0,6.536,0,11.494,0C662.675,15.937,658.288,22.421,654.205,28.455z"/>
</g>
</svg>
