<?xml version="1.0" encoding="utf-8"?>
<!-- Generator: Adobe Illustrator 16.0.0, SVG Export Plug-In . SVG Version: 6.00 Build 0)  -->
<!DOCTYPE svg PUBLIC "-//W3C//DTD SVG 1.1//EN" "http://www.w3.org/Graphics/SVG/1.1/DTD/svg11.dtd">
<svg version="1.1" id="Layer_1" xmlns="http://www.w3.org/2000/svg" xmlns:xlink="http://www.w3.org/1999/xlink" x="0px" y="0px"
	 width="147.397px" height="62.585px" viewBox="0 0 147.397 62.585" enable-background="new 0 0 147.397 62.585"
	 xml:space="preserve">
<g>
	<path fill="#4D4D4F" d="M19.361,54.738l1.093,3.118c0.184,0.518,0.333,0.978,0.449,1.438h0.034c0.126-0.46,0.288-0.92,0.472-1.438
		l1.082-3.118h1.059l-2.186,5.568h-0.966l-2.117-5.568H19.361z"/>
	<path fill="#4D4D4F" d="M23.845,59.72l2.508-3.279c0.253-0.311,0.483-0.575,0.736-0.874v-0.022h-3.015v-0.806h4.234v0.633
		l-2.485,3.232c-0.242,0.311-0.46,0.599-0.713,0.875v0.022h3.245v0.806h-4.51V59.72z"/>
	<path fill="#4D4D4F" d="M34.095,52.138v6.73c0,0.495,0.022,1.059,0.046,1.438h-0.897l-0.046-0.967h-0.034
		c-0.3,0.622-0.967,1.094-1.876,1.094c-1.346,0-2.393-1.14-2.393-2.831c-0.012-1.852,1.15-2.979,2.496-2.979
		c0.863,0,1.427,0.402,1.68,0.84h0.023v-3.325H34.095z M33.094,57.005c0-0.127-0.012-0.3-0.046-0.426
		c-0.149-0.633-0.702-1.162-1.462-1.162c-1.047,0-1.668,0.92-1.668,2.14c0,1.128,0.564,2.06,1.646,2.06
		c0.679,0,1.3-0.46,1.484-1.208c0.034-0.138,0.046-0.276,0.046-0.438V57.005z"/>
	<path fill="#4D4D4F" d="M36.323,57.706c0.023,1.369,0.886,1.934,1.91,1.934c0.725,0,1.174-0.127,1.542-0.288l0.184,0.725
		c-0.356,0.161-0.978,0.357-1.863,0.357c-1.715,0-2.738-1.14-2.738-2.819s0.989-2.991,2.611-2.991c1.829,0,2.301,1.588,2.301,2.611
		c0,0.207-0.012,0.357-0.034,0.472H36.323z M39.292,56.981c0.012-0.633-0.265-1.634-1.403-1.634c-1.036,0-1.473,0.933-1.554,1.634
		H39.292z M37.474,53.979l-1.104-1.645h0.771l0.679,1.093h0.022l0.68-1.093h0.759l-1.081,1.645H37.474z"/>
	<path fill="#4D4D4F" d="M41.498,52.138h1.013v8.169h-1.013V52.138z"/>
	<path fill="#4D4D4F" d="M48.101,58.972c0,0.483,0.022,0.955,0.08,1.335h-0.909l-0.08-0.702h-0.034
		c-0.312,0.438-0.909,0.829-1.703,0.829c-1.128,0-1.703-0.794-1.703-1.6c0-1.346,1.197-2.082,3.349-2.071v-0.114
		c0-0.449-0.127-1.289-1.266-1.277c-0.529,0-1.07,0.149-1.461,0.414l-0.23-0.679c0.46-0.288,1.139-0.483,1.841-0.483
		c1.703,0,2.117,1.162,2.117,2.267V58.972z M47.122,57.465c-1.104-0.023-2.358,0.173-2.358,1.254c0,0.667,0.438,0.967,0.943,0.967
		c0.736,0,1.208-0.46,1.369-0.932c0.034-0.115,0.046-0.23,0.046-0.322V57.465z M47.629,52.334l-1.404,1.645h-0.713l1.001-1.645
		H47.629z"/>
	<path fill="#4D4D4F" d="M50.009,54.738l1.093,3.118c0.184,0.518,0.333,0.978,0.448,1.438h0.035c0.126-0.46,0.287-0.92,0.472-1.438
		l1.081-3.118h1.059l-2.186,5.568h-0.967l-2.117-5.568H50.009z"/>
	<path fill="#4D4D4F" d="M58.991,58.972c0,0.483,0.022,0.955,0.08,1.335h-0.909l-0.08-0.702h-0.034
		c-0.312,0.438-0.909,0.829-1.703,0.829c-1.128,0-1.703-0.794-1.703-1.6c0-1.346,1.197-2.082,3.349-2.071v-0.114
		c0-0.449-0.127-1.289-1.266-1.277c-0.529,0-1.07,0.149-1.461,0.414l-0.23-0.679c0.46-0.288,1.139-0.483,1.841-0.483
		c1.703,0,2.117,1.162,2.117,2.267V58.972z M58.013,57.465c-1.104-0.023-2.358,0.173-2.358,1.254c0,0.667,0.438,0.967,0.943,0.967
		c0.736,0,1.208-0.46,1.369-0.932c0.034-0.115,0.046-0.23,0.046-0.322V57.465z M58.52,52.334l-1.404,1.645h-0.713l1.001-1.645H58.52
		z"/>
	<path fill="#4D4D4F" d="M60.6,56.245c0-0.587-0.012-1.047-0.046-1.507h0.897l0.058,0.92h0.022c0.276-0.518,0.921-1.035,1.841-1.035
		c0.771,0,1.968,0.46,1.968,2.37v3.313h-1.013v-3.21c0-0.897-0.333-1.646-1.288-1.646c-0.656,0-1.174,0.472-1.358,1.036
		c-0.046,0.126-0.068,0.299-0.068,0.472v3.348H60.6V56.245z"/>
	<path fill="#4D4D4F" d="M69.019,52.334l-1.403,1.645h-0.714l1.013-1.645H69.019z M66.959,60.307v-5.568h1.013v5.568H66.959z"/>
	<path fill="#4D4D4F" d="M72.041,56.556c0-0.713-0.023-1.288-0.046-1.817h0.897l0.058,0.955h0.022c0.403-0.679,1.07-1.07,1.979-1.07
		c1.357,0,2.37,1.139,2.37,2.818c0,2.002-1.231,2.992-2.543,2.992c-0.736,0-1.381-0.322-1.714-0.875h-0.023v3.026h-1.001V56.556z
		 M73.042,58.04c0,0.149,0.012,0.288,0.046,0.414c0.185,0.702,0.794,1.186,1.519,1.186c1.07,0,1.691-0.875,1.691-2.151
		c0-1.104-0.587-2.06-1.656-2.06c-0.69,0-1.347,0.483-1.53,1.242c-0.035,0.127-0.069,0.276-0.069,0.402V58.04z"/>
	<path fill="#4D4D4F" d="M78.562,56.476c0-0.656-0.012-1.22-0.046-1.737h0.886l0.046,1.104h0.035c0.253-0.748,0.874-1.22,1.553-1.22
		c0.104,0,0.184,0.012,0.276,0.023v0.954c-0.104-0.022-0.207-0.022-0.346-0.022c-0.713,0-1.22,0.529-1.357,1.288
		c-0.022,0.139-0.034,0.311-0.034,0.472v2.969h-1.013V56.476z"/>
	<path fill="#4D4D4F" d="M87.224,57.477c0,2.06-1.438,2.957-2.772,2.957c-1.496,0-2.669-1.104-2.669-2.865
		c0-1.853,1.23-2.945,2.761-2.945C86.143,54.623,87.224,55.785,87.224,57.477z M82.817,57.534c0,1.22,0.69,2.14,1.68,2.14
		c0.967,0,1.691-0.909,1.691-2.163c0-0.943-0.472-2.128-1.668-2.128C83.335,55.383,82.817,56.487,82.817,57.534z"/>
	<path fill="#4D4D4F" d="M90.576,52.138h1.001v3.498h0.023c0.356-0.621,1.001-1.013,1.897-1.013c1.393,0,2.359,1.15,2.359,2.83
		c0,1.99-1.266,2.98-2.509,2.98c-0.805,0-1.449-0.312-1.875-1.036H91.45l-0.057,0.909H90.53c0.022-0.38,0.046-0.943,0.046-1.438
		V52.138z M91.577,58.074c0,0.127,0.012,0.254,0.046,0.368c0.185,0.702,0.782,1.186,1.519,1.186c1.07,0,1.691-0.863,1.691-2.14
		c0-1.116-0.575-2.071-1.668-2.071c-0.679,0-1.323,0.483-1.53,1.242c-0.034,0.127-0.058,0.265-0.058,0.426V58.074z"/>
	<path fill="#4D4D4F" d="M101.756,58.776c0,0.587,0.012,1.093,0.047,1.53h-0.897l-0.058-0.909h-0.023
		c-0.253,0.449-0.852,1.036-1.841,1.036c-0.874,0-1.921-0.495-1.921-2.439v-3.256h1.012v3.071c0,1.059,0.334,1.784,1.243,1.784
		c0.679,0,1.15-0.472,1.334-0.933c0.058-0.138,0.093-0.322,0.093-0.518v-3.405h1.012V58.776z"/>
	<path fill="#4D4D4F" d="M108.208,52.138v6.73c0,0.495,0.022,1.059,0.046,1.438h-0.897l-0.046-0.967h-0.034
		c-0.3,0.622-0.967,1.094-1.876,1.094c-1.346,0-2.393-1.14-2.393-2.831c-0.012-1.852,1.15-2.979,2.496-2.979
		c0.863,0,1.427,0.402,1.68,0.84h0.023v-3.325H108.208z M107.207,57.005c0-0.127-0.012-0.3-0.046-0.426
		c-0.149-0.633-0.702-1.162-1.461-1.162c-1.048,0-1.669,0.92-1.669,2.14c0,1.128,0.563,2.06,1.646,2.06
		c0.679,0,1.3-0.46,1.484-1.208c0.034-0.138,0.046-0.276,0.046-0.438V57.005z"/>
	<path fill="#4D4D4F" d="M114.912,57.477c0,2.06-1.438,2.957-2.772,2.957c-1.496,0-2.669-1.104-2.669-2.865
		c0-1.853,1.23-2.945,2.761-2.945C113.831,54.623,114.912,55.785,114.912,57.477z M110.506,57.534c0,1.22,0.69,2.14,1.68,2.14
		c0.967,0,1.691-0.909,1.691-2.163c0-0.943-0.472-2.128-1.668-2.128C111.023,55.383,110.506,56.487,110.506,57.534z"/>
	<path fill="#4D4D4F" d="M120.822,58.776c0,0.587,0.012,1.093,0.047,1.53h-0.897l-0.058-0.909h-0.023
		c-0.253,0.449-0.852,1.036-1.841,1.036c-0.874,0-1.921-0.495-1.921-2.439v-3.256h1.012v3.071c0,1.059,0.334,1.784,1.243,1.784
		c0.679,0,1.15-0.472,1.334-0.933c0.058-0.138,0.093-0.322,0.093-0.518v-3.405h1.012V58.776z"/>
	<path fill="#4D4D4F" d="M126.446,60.111c-0.265,0.126-0.852,0.322-1.6,0.322c-1.68,0-2.772-1.14-2.772-2.842
		c0-1.715,1.173-2.969,2.991-2.969c0.598,0,1.127,0.149,1.403,0.299l-0.229,0.771c-0.242-0.127-0.622-0.265-1.174-0.265
		c-1.277,0-1.968,0.955-1.968,2.105c0,1.288,0.828,2.082,1.933,2.082c0.576,0,0.955-0.138,1.243-0.265L126.446,60.111z"/>
	<path fill="#4D4D4F" d="M127.605,56.245c0-0.587-0.012-1.047-0.046-1.507h0.897l0.058,0.92h0.022
		c0.276-0.518,0.921-1.035,1.841-1.035c0.771,0,1.968,0.46,1.968,2.37v3.313h-1.013v-3.21c0-0.897-0.334-1.646-1.288-1.646
		c-0.656,0-1.174,0.472-1.358,1.036c-0.046,0.126-0.068,0.299-0.068,0.472v3.348h-1.013V56.245z"/>
	<path fill="#4D4D4F" d="M139.004,57.477c0,2.06-1.438,2.957-2.772,2.957c-1.496,0-2.669-1.104-2.669-2.865
		c0-1.853,1.23-2.945,2.761-2.945C137.923,54.623,139.004,55.785,139.004,57.477z M134.598,57.534c0,1.22,0.69,2.14,1.68,2.14
		c0.967,0,1.691-0.909,1.691-2.163c0-0.943-0.472-2.128-1.668-2.128C135.115,55.383,134.598,56.487,134.598,57.534z"/>
	<path fill="#4D4D4F" d="M140.118,59.282c0.311,0.185,0.84,0.392,1.346,0.392c0.725,0,1.07-0.356,1.07-0.828
		c0-0.483-0.288-0.736-1.024-1.013c-1.013-0.368-1.484-0.909-1.484-1.576c0-0.897,0.736-1.634,1.922-1.634
		c0.563,0,1.059,0.149,1.357,0.345l-0.241,0.736c-0.219-0.138-0.622-0.333-1.14-0.333c-0.598,0-0.92,0.345-0.92,0.759
		c0,0.461,0.322,0.668,1.047,0.955c0.955,0.356,1.461,0.84,1.461,1.669c0,0.989-0.771,1.68-2.071,1.68
		c-0.609,0-1.173-0.161-1.564-0.392L140.118,59.282z"/>
	<path fill="#4D4D4F" d="M146.006,53.403v1.335h1.449v0.771h-1.449v3.003c0,0.69,0.195,1.082,0.759,1.082
		c0.276,0,0.438-0.023,0.587-0.069l0.046,0.771c-0.195,0.069-0.506,0.139-0.897,0.139c-0.472,0-0.851-0.161-1.093-0.426
		c-0.276-0.311-0.391-0.806-0.391-1.462v-3.037h-0.863v-0.771h0.863v-1.035L146.006,53.403z"/>
</g>
<g>
	<path fill="#4D4D4F" d="M110.984,45.601h-4.176V19.489h4.176V45.601L110.984,45.601z"/>
</g>
<g>
	<path fill="#4D4D4F" d="M128.379,45.608c-6.357,0-11.82-0.803-11.82-9.889v-6.404c0-9.089,5.463-9.832,11.82-9.832h7.078
		c6.355,0,11.764,0.743,11.764,9.832v6.404c0,9.086-5.408,9.889-11.764,9.889 M127.348,23.224c-4.504,0-6.613,0.678-6.613,6.338
		v5.912c0,5.656,2.109,6.395,6.613,6.395h9.109c4.506,0,6.613-0.783,6.613-6.439l-0.006-5.867c0-5.66-2.102-6.338-6.607-6.338
		H127.348L127.348,23.224z"/>
</g>
<rect x="34.184" fill="#007DC5" width="11.427" height="11.425"/>
<path fill="#007DC5" d="M29.909,11.425H4.272C1.913,11.425,0,13.338,0,15.698v25.639c0,2.357,1.913,4.271,4.272,4.271h25.637
	c2.361,0,4.274-1.914,4.274-4.271V15.698C34.184,13.338,32.271,11.425,29.909,11.425z M30.514,26.507H19.086V15.079h11.428V26.507z"
	/>
<g>
	<path fill="#4D4D4F" d="M46.13,45.591v-3.734h15.828c5.114,0.053,7.59,0.158,7.502-3.529v-0.48c0-2.16-0.355-3.576-5.116-3.576
		H53.593c-5.488,0-7.854-1.852-7.854-6.42V25.64c0-4.732,3.565-6.157,8.403-6.157h16.914v3.741H54.388
		c-3.623,0-4.477,0.678-4.477,3.078v1.139c0,2.092,0.678,3.086,4.533,3.086h9.268c5.307,0,9.926,0.773,9.926,6.521v1.812
		c0,6.445-6.256,6.73-9.436,6.73"/>
</g>
<g>
	<path fill="#4D4D4F" d="M100.742,45.603l-14.545,0.002c-6.406,0-9.428-3.262-9.428-9.973v-6.105
		c0-8.988,5.123-10.033,10.285-10.033h13.688v3.74l-13.086,0.002c-3.887,0.016-6.71,0.295-6.71,6.439V35.7
		c0,5.898,2.89,6.109,7.321,6.158l12.475-0.002V45.603L100.742,45.603z"/>
</g>
</svg>
