<?xml version="1.0" encoding="utf-8"?>
<!-- Generator: Adobe Illustrator 16.0.0, SVG Export Plug-In . SVG Version: 6.00 Build 0)  -->
<!DOCTYPE svg PUBLIC "-//W3C//DTD SVG 1.1//EN" "http://www.w3.org/Graphics/SVG/1.1/DTD/svg11.dtd">
<svg version="1.1" id="Layer_1" xmlns="http://www.w3.org/2000/svg" xmlns:xlink="http://www.w3.org/1999/xlink" x="0px" y="0px"
	 width="343.656px" height="125.103px" viewBox="0 0 343.656 125.103" enable-background="new 0 0 343.656 125.103"
	 xml:space="preserve">
<g>
	<g>
		<g>
			<g>
				<path fill="#20201E" d="M46.915,41.754c0,2.183-1.766,3.948-3.946,3.948c-2.181,0-3.95-1.765-3.95-3.948
					c0-2.184,1.769-3.953,3.95-3.953C45.148,37.802,46.915,39.571,46.915,41.754z"/>
				<path fill="#20201E" d="M72.943,41.754c0,2.183-1.769,3.948-3.949,3.948c-2.184,0-3.953-1.765-3.953-3.948
					c0-2.184,1.769-3.953,3.953-3.953C71.174,37.802,72.943,39.571,72.943,41.754z"/>
			</g>
			<path fill="#20201E" d="M83.151,27.101c31.417,0.041,38.655-16.497,38.655-16.497C101.721,23.571,81.578,0,55.909,0
				C44.241,0,35.028,4.745,28.19,12.299c-0.92,1.013-1.772,2.093-2.575,3.205c-1.227,1.687-2.325,3.476-3.256,5.361
				c-2.336,4.736-3.664,10.058-3.793,15.676c4.041-4.453,13.078-11.023,32.827-10.412L83.151,27.101z"/>
		</g>
		<g>
			<path fill="#C20023" d="M11.271,44.372C5.809,42.306,0,48.161,0,52.836v6.091l10.781,2.764c1.021,0.261,1.589,1.476,1.271,2.714
				c-0.316,1.233-1.399,2.026-2.416,1.765L0,63.701v1.712l14.324,3.675c1.019,0.26,1.588,1.474,1.27,2.711
				c-0.315,1.235-1.398,2.028-2.415,1.766L0,70.186v1.755l11.023,2.825c1.022,0.263,1.587,1.474,1.27,2.713
				c-0.316,1.236-1.4,2.026-2.418,1.766L0,76.712v1.727l5.938,1.521c0.873,0.225,1.36,1.267,1.089,2.326
				c-0.271,1.061-1.199,1.739-2.072,1.514L0,82.531V92.62c0,4.671,5.348,5.407,11.271,8.466l43.756,22.812V62.214L11.271,44.372z"/>
		</g>
		<g>
			<path fill="#A3101E" d="M102.901,82.287c-0.271-1.059,0.215-2.101,1.088-2.326l6.067-1.555V76.68l-10.003,2.565
				c-1.019,0.261-2.102-0.529-2.418-1.766c-0.316-1.239,0.249-2.45,1.27-2.713l11.151-2.859v-1.754L96.75,73.565
				c-1.019,0.262-2.1-0.531-2.416-1.766c-0.318-1.237,0.25-2.451,1.269-2.711l14.453-3.708v-1.715l-9.764,2.504
				c-1.017,0.261-2.1-0.532-2.416-1.765c-0.319-1.238,0.25-2.453,1.271-2.714l10.909-2.796v-6.059c0-4.676-5.808-10.53-11.272-8.465
				L55.028,62.214v61.684l43.756-22.812c5.925-3.059,11.272-3.795,11.272-8.466V82.499l-5.083,1.302
				C104.101,84.025,103.172,83.348,102.901,82.287z"/>
		</g>
	</g>
	<g>
		<path fill="#A3101E" d="M336.861,62.373c0.838,0,1.408-0.15,2.123-0.807l2.008-1.916c0.299-0.269,0.508-0.568,0.508-0.897
			c0-0.568-1.197-1.167-2.152-1.167c-0.631,0-1.109,0.33-1.439,0.869l-1.703,2.632c-0.121,0.18-0.24,0.449-0.24,0.658
			C335.964,62.134,336.355,62.373,336.861,62.373 M335.994,77.725c-1.736,0-3.084-0.867-3.084-2.395v-0.06
			c0-1.646,1.377-2.633,3.713-2.633c1.436,0,2.662,0.27,3.588,0.628v1.079C340.21,76.349,338.388,77.725,335.994,77.725
			 M334.978,80.36c2.42,0,4.064-1.02,5.145-2.306v0.599c0,0.809,0.719,1.526,1.766,1.526c0.988,0,1.768-0.749,1.768-1.735v-7.781
			c0-2.064-0.541-3.741-1.705-4.878c-1.109-1.137-2.875-1.764-5.236-1.764c-2.066,0-3.596,0.357-5.09,0.925
			c-0.539,0.211-0.988,0.78-0.988,1.438c0,0.837,0.688,1.496,1.527,1.496c0.178,0,0.357-0.031,0.566-0.089
			c0.988-0.391,2.127-0.629,3.504-0.629c2.541,0,3.918,1.196,3.918,3.442v0.389c-1.227-0.389-2.482-0.659-4.25-0.659
			c-3.859,0-6.521,1.676-6.521,5.087v0.061C329.38,78.652,332.013,80.36,334.978,80.36 M311.875,78.384
			c0,1.017,0.809,1.794,1.793,1.794c1.018,0,1.828-0.777,1.828-1.794v-7.272c0-2.453,1.467-3.92,3.562-3.92
			c2.152,0,3.379,1.407,3.379,3.86v7.332c0,1.017,0.809,1.794,1.824,1.794c1.021,0,1.797-0.777,1.797-1.794v-8.439
			c0-3.651-2.064-6.045-5.623-6.045c-2.457,0-3.922,1.286-4.939,2.753v-6.824c0-0.986-0.811-1.793-1.828-1.793
			s-1.793,0.808-1.793,1.793V78.384z M300.74,62.373c0.842,0,1.408-0.15,2.127-0.807l2.006-1.916c0.297-0.269,0.51-0.568,0.51-0.897
			c0-0.568-1.197-1.167-2.156-1.167c-0.627,0-1.107,0.33-1.439,0.869l-1.703,2.632c-0.117,0.18-0.238,0.449-0.238,0.658
			C299.845,62.134,300.234,62.373,300.74,62.373 M299.875,77.725c-1.736,0-3.082-0.867-3.082-2.395v-0.06
			c0-1.646,1.373-2.633,3.709-2.633c1.438,0,2.664,0.27,3.592,0.628v1.079C304.093,76.349,302.269,77.725,299.875,77.725
			 M298.857,80.36c2.424,0,4.068-1.02,5.145-2.306v0.599c0,0.809,0.721,1.526,1.768,1.526c0.986,0,1.766-0.749,1.766-1.735v-7.781
			c0-2.064-0.541-3.741-1.707-4.878c-1.105-1.137-2.873-1.764-5.234-1.764c-2.066,0-3.594,0.357-5.09,0.925
			c-0.539,0.211-0.986,0.78-0.986,1.438c0,0.837,0.689,1.496,1.527,1.496c0.176,0,0.359-0.031,0.568-0.089
			c0.984-0.391,2.123-0.629,3.5-0.629c2.545,0,3.922,1.196,3.922,3.442v0.389c-1.23-0.389-2.486-0.659-4.252-0.659
			c-3.859,0-6.523,1.676-6.523,5.087v0.061C293.259,78.652,295.894,80.36,298.857,80.36 M265.88,78.384
			c0,1.017,0.807,1.794,1.795,1.794c1.018,0,1.822-0.777,1.822-1.794v-7.272c0-2.425,1.381-3.92,3.385-3.92
			c2.002,0,3.199,1.376,3.199,3.83v7.362c0,1.017,0.809,1.794,1.828,1.794c0.984,0,1.793-0.777,1.793-1.794v-7.272
			c0-2.544,1.406-3.92,3.383-3.92c2.037,0,3.201,1.346,3.201,3.86v7.332c0,1.017,0.809,1.794,1.826,1.794
			c1.016,0,1.795-0.777,1.795-1.794v-8.439c0-3.862-2.094-6.045-5.535-6.045c-2.393,0-4.068,1.106-5.324,2.785
			c-0.84-1.679-2.457-2.785-4.732-2.785c-2.424,0-3.799,1.317-4.818,2.724v-0.748c0-1.019-0.805-1.827-1.822-1.827
			c-1.02,0-1.795,0.808-1.795,1.827V78.384z M253.787,77.216c-2.812,0-4.816-2.303-4.816-5.058v-0.06
			c0-2.752,1.857-5.026,4.758-5.026c2.842,0,4.848,2.303,4.848,5.086v0.06C258.576,74.942,256.72,77.216,253.787,77.216
			 M253.728,80.389c4.877,0,8.469-3.743,8.469-8.231v-0.06c0-4.517-3.559-8.199-8.41-8.199c-4.846,0-8.438,3.742-8.438,8.259v0.06
			C245.349,76.707,248.91,80.389,253.728,80.389 M234.277,77.216c-2.457,0-4.605-2.034-4.605-5.058v-0.06
			c0-3.021,2.148-5.056,4.605-5.056c2.453,0,4.52,2.005,4.52,5.056v0.06C238.796,75.271,236.759,77.216,234.277,77.216
			 M226.138,83.171c0,1.018,0.809,1.797,1.793,1.797c1.02,0,1.828-0.779,1.828-1.797v-5.596c1.109,1.466,2.754,2.784,5.387,2.784
			c3.74,0,7.33-2.965,7.33-8.202v-0.06c0-5.268-3.619-8.199-7.33-8.199c-2.574,0-4.219,1.317-5.387,2.962v-0.986
			c0-1.019-0.809-1.827-1.828-1.827c-1.018,0-1.793,0.808-1.793,1.827V83.171z M208.81,78.384c0,1.017,0.811,1.794,1.795,1.794
			c1.018,0,1.828-0.777,1.828-1.794V65.875c0-1.019-0.811-1.827-1.828-1.827c-1.014,0-1.795,0.808-1.795,1.827V78.384z
			 M210.517,62.373c0.838,0,1.406-0.15,2.123-0.807l2.008-1.916c0.297-0.269,0.508-0.568,0.508-0.897
			c0-0.568-1.197-1.167-2.156-1.167c-0.627,0-1.105,0.33-1.436,0.869l-1.705,2.632c-0.121,0.18-0.238,0.449-0.238,0.658
			C209.621,62.134,210.007,62.373,210.517,62.373 M190.048,78.384c0,1.017,0.807,1.794,1.795,1.794c1.018,0,1.826-0.777,1.826-1.794
			v-7.272c0-2.453,1.465-3.92,3.561-3.92c2.152,0,3.383,1.407,3.383,3.86v7.332c0,1.017,0.809,1.794,1.824,1.794
			c1.018,0,1.793-0.777,1.793-1.794v-8.439c0-3.651-2.061-6.045-5.623-6.045c-2.457,0-3.92,1.286-4.938,2.753v-0.777
			c0-1.019-0.809-1.827-1.826-1.827s-1.795,0.808-1.795,1.827V78.384z M184.9,78.294c0.268-0.269,0.48-0.658,0.48-1.109
			c0-0.836-0.629-1.465-1.439-1.465c-0.418,0-0.658,0.121-0.926,0.33c-1.018,0.837-2.215,1.375-3.742,1.375
			c-2.332,0-4.16-1.436-4.555-4.011h9.912c0.93,0,1.705-0.716,1.705-1.734c0-3.651-2.482-7.781-7.51-7.781
			c-4.525,0-7.729,3.71-7.729,8.229v0.061c0,4.877,3.537,8.2,8.117,8.2C181.667,80.389,183.462,79.58,184.9,78.294 M174.693,71.021
			c0.33-2.454,1.889-4.16,4.104-4.16c2.393,0,3.768,1.825,4.01,4.16H174.693z M165.412,80.3c0.955,0,1.705-0.15,2.482-0.421
			c0.508-0.208,0.959-0.747,0.959-1.405c0-0.838-0.719-1.497-1.527-1.497c-0.121,0-0.477,0.089-0.896,0.089
			c-1.227,0-1.947-0.567-1.947-1.975v-7.75h2.844c0.867,0,1.586-0.688,1.586-1.557c0-0.867-0.719-1.555-1.586-1.555h-2.844v-2.695
			c0-0.985-0.807-1.794-1.791-1.794c-1.021,0-1.828,0.809-1.828,1.794v2.695h-0.6c-0.867,0-1.557,0.688-1.557,1.555
			c0,0.869,0.689,1.557,1.557,1.557h0.6v8.319C160.863,79.132,162.75,80.3,165.412,80.3 M150.329,80.389
			c2.636,0,4.339-0.898,5.745-2.244c0.33-0.272,0.51-0.659,0.51-1.137c0-0.869-0.689-1.588-1.557-1.588
			c-0.418,0-0.777,0.209-0.989,0.392c-0.985,0.835-2.094,1.404-3.53,1.404c-2.783,0-4.727-2.244-4.727-5.058v-0.06
			c0-2.752,1.944-5.026,4.577-5.026c1.438,0,2.453,0.569,3.383,1.346c0.238,0.18,0.627,0.359,1.077,0.359
			c0.926,0,1.678-0.719,1.678-1.645c0-0.6-0.33-1.049-0.572-1.256c-1.344-1.168-3.05-1.976-5.536-1.976
			c-4.757,0-8.229,3.771-8.229,8.259v0.06C142.159,76.707,145.631,80.389,150.329,80.389 M150.208,59.829l-1.556-1.346
			c-0.776-0.658-1.376-0.808-2.215-0.808c-0.479,0-0.868,0.209-0.868,0.599c0,0.24,0.183,0.479,0.362,0.717l1.974,2.484
			c0.45,0.541,0.897,0.867,1.736,0.867h1.076c0.839,0,1.318-0.326,1.739-0.867l1.973-2.484c0.18-0.238,0.359-0.477,0.359-0.717
			c0-0.389-0.33-0.599-0.809-0.599c-0.838,0-1.406,0.15-2.215,0.808L150.208,59.829z"/>
	</g>
</g>
</svg>
