<?xml version="1.0" encoding="utf-8"?>
<!-- Generator: Adobe Illustrator 16.0.0, SVG Export Plug-In . SVG Version: 6.00 Build 0)  -->
<!DOCTYPE svg PUBLIC "-//W3C//DTD SVG 1.1//EN" "http://www.w3.org/Graphics/SVG/1.1/DTD/svg11.dtd">
<svg version="1.1" id="Layer_1" xmlns="http://www.w3.org/2000/svg" xmlns:xlink="http://www.w3.org/1999/xlink" x="0px" y="0px"
	 width="1320px" height="306px" viewBox="0 0 1320 306" enable-background="new 0 0 1320 306" xml:space="preserve">
<g>
	<path fill-rule="evenodd" clip-rule="evenodd" fill="#242E3C" d="M541.817,292.847c-8.338,0-15.475,0-23.297,0
		c-2.98-8.291-6.01-16.72-8.937-24.86c-12.054,0-23.374,0-35.193,0c-2.809,8.291-5.544,16.364-8.365,24.688
		c-14.113,0-28.338,0-43.227,0c0-13.478,0-26.626,0-40.397c-14.006,0-27.374,0-41.695,0c0,13.092,0,26.443,0,40.258
		c-16.739,0-32.545,0-49.072,0c-9.198-14.312-18.724-29.134-28.112-43.742c-3.549,0-6.663,0-10.392,0c0,14.536,0,28.77,0,43.61
		c-7.886,0-15.165,0-23.102,0c0-34.204,0-68.718,0-103.633c7.443,0,14.719,0,22.663,0c0,13.484,0,26.638,0,40.375
		c3.916,0,7.197,0,10.941,0c8.843-13.233,17.936-26.842,27.046-40.475c8.389,0,16.794,0,26.846,0
		c-11.427,17.332-22.231,33.72-33.062,50.146c11.082,17.011,21.938,33.672,33.978,52.15c0-35.29,0-68.499,0-102.146
		c7.504,0,14.251,0,21.667,0c0,13.857,0,27.541,0,41.867c14.003,0,27.372,0,41.693,0c0-13.565,0-27.446,0-41.812
		c7.148,0,13.367,0,20.311,0c0,32.77-0.062,71.039-0.062,103.797h0.373c11.927-32.953,25.305-71.035,37.263-104.073
		c8.021,0,15.687,0,24.347,0C516.7,222.817,529.1,257.388,541.817,292.847z M481.558,246.775c7.081,0,13.545,0,20.839,0
		c-3.42-9.863-6.601-19.031-10.356-29.854C488.059,228.262,484.829,237.458,481.558,246.775z"/>
	<path fill-rule="evenodd" clip-rule="evenodd" fill="#242E3C" d="M627.729,228.097c1.462-8.182,5.872-18.249,11.396-25.281
		c15.383-19.585,44.591-21.611,62.669-7.614c29.083,22.517,26.565,66.316,3.264,88.069c-20.658,19.286-58.083,13.263-70.699-11.974
		c-2.961-5.924-5.929-13.297-6.625-20.558C627.038,243.479,626.236,236.444,627.729,228.097z M703.543,240.134
		c-0.528-7.493-2.075-11.285-4.284-16.424c-7.431-17.291-27.985-24.404-43.207-9.322c-12.178,12.066-13.355,32.501-2.765,48.283
		c9.132,13.606,26.65,16.271,38.3,5.022C699.048,260.493,703.765,251.428,703.543,240.134z"/>
	<path fill-rule="evenodd" clip-rule="evenodd" fill="#242E3C" d="M625.835,292.582c-8.025,0-15.352,0-22.817,0
		c-12.512-20.68-25.1-41.486-37.688-62.292c-0.461,0.115-0.923,0.234-1.384,0.353c0,20.468,0,40.936,0,62.104
		c-7.36,0-13.39,0-19.942,0c0-34.586,0-68.903,0-103.799c6.676,0,13.434,0,20.576,0c12.993,21.499,26.227,43.397,39.461,65.298
		c0.453-0.114,0.906-0.228,1.358-0.341c0-21.524,0-43.048,0-65.047c6.976,0,13.194,0,20.136,0"/>
	<path fill-rule="evenodd" clip-rule="evenodd" fill="#242E3C" d="M803.616,292.837c-7.421,0-14.017,0-21.317,0
		c11.063-34.802,22.01-69.231,33.068-104.019c7.445,0,14.725,0,22.415,0c10.995,34.639,21.949,69.143,33.01,103.987
		c-7.09,0-13.688,0-21.397,0c-2.538-7.847-5.199-16.079-7.986-24.697c-10.007,0-19.695,0-29.977,0
		C808.905,276.102,806.231,284.561,803.616,292.837z M817.784,246.8c6.224,0,11.336,0,17.423,0
		c-2.734-8.963-5.255-17.229-7.777-25.493c-0.689,0.071-1.38,0.144-2.07,0.217C822.897,229.737,820.437,237.952,817.784,246.8z"/>
	<path fill-rule="evenodd" clip-rule="evenodd" fill="#242E3C" d="M782.759,188.835c7.444,0,14.206,0,21.902,0
		c-11.289,34.951-22.354,69.21-33.509,103.74c-7.24,0-14.049,0-22.361,0c-11.072-33.925-22.374-68.544-33.875-103.781
		c7.568,0,14.353,0,22.131,0c7.276,23.378,14.681,47.174,22.086,70.97c0.542-0.129,1.084-0.257,1.626-0.385
		C768.074,235.92,775.391,212.462,782.759,188.835z"/>
	<path fill-rule="evenodd" clip-rule="evenodd" fill="#242E3C" d="M1067.455,296.203c-30.644,1.378-54.669-25.211-54.238-55.796
		c0.449-32.033,22.016-54.685,54.17-54.877c33.136-0.197,54.145,23.539,54.678,55.22
		C1122.57,270.873,1097.735,297.997,1067.455,296.203z M1067.649,285.44c21.039,0.685,42.44-19.475,42.235-45.323
		c-0.191-23.933-17.732-43.438-41.91-43.75c-23.535-0.305-42.119,18.307-42.57,43.822
		C1024.948,265.979,1046.561,286.162,1067.649,285.44z"/>
	<path fill-rule="evenodd" clip-rule="evenodd" fill="#242E3C" d="M1271,294.321c-4.739,0-8.146,0-12.493,0
		c-3.909-10.644-7.979-21.732-12.072-32.876c-13.44,0-26.394,0-40.863,0c-3.933,10.583-8.108,21.814-12.268,33.004
		c-3.907,0-7.324,0-11.857,0c12.906-36.206,25.636-71.916,38.312-107.479c4.397,0,7.808,0,12.114,0
		C1244.736,222.26,1257.665,257.733,1271,294.321z M1226.805,205.617c-0.568,0.03-1.136,0.062-1.704,0.091
		c-5.235,14.504-10.471,29.008-15.966,44.227c11.59,0,21.977,0,33.213,0C1237,234.69,1231.903,220.154,1226.805,205.617z"/>
	<path fill-rule="evenodd" clip-rule="evenodd" fill="#242E3C" d="M961.921,294.409c-4.27,0-7.147,0-10.553,0
		c0-35.775,0-71.356,0-107.273c3.343,0,6.383,0,10.05,0c0,15.075,0,29.816,0,45.171c6.253,0,11.9,0,18.031,0
		c9.085-14.839,18.313-29.913,27.609-45.098c4.268,0,8.609,0,14.038,0c-10.039,15.894-19.396,31.107-29.227,46.007
		c-2.573,3.899-2.392,6.35,0.036,10.243c10.275,16.494,20.063,33.29,30.437,50.655c-5.013,0-9.347,0-13.92,0
		c-9.85-16.533-19.817-33.265-29.908-50.2c-5.168,0-10.427,0-16.594,0C961.921,260.578,961.921,277.107,961.921,294.409z"/>
	<path fill-rule="evenodd" clip-rule="evenodd" fill="#242E3C" d="M874.165,282.316c2.17-3.017,3.966-5.514,5.733-7.971
		c7.225,3.447,13.905,7.426,21.102,9.904c14.955,5.155,29.1-4.403,27.221-18.601c-0.586-4.432-4.303-9.7-8.141-12.191
		c-8.227-5.338-17.422-9.209-26.303-13.512c-10.98-5.321-18.272-13.44-17.564-26.115c0.704-12.582,7.572-21.051,19.575-25.794
		c14.044-5.548,32.918-2.281,42.352,8.654c-1.459,2.816-3.059,5.908-5.33,10.297c-7.935-8.778-17.533-10.509-27.693-9.34
		c-7.125,0.818-12.188,4.488-15.427,11.519c-2.882,6.254-0.764,11.687,2.811,15.095c4.726,4.503,11.452,6.901,17.299,10.241
		c7.638,4.366,16.015,7.847,22.697,13.374c9.326,7.713,10.952,19.322,6.21,30.721c-4.725,11.354-13.703,16.736-25.584,17.566
		C898.445,297.188,885.022,294.316,874.165,282.316z"/>
	<path fill-rule="evenodd" clip-rule="evenodd" fill="#242E3C" d="M1132.675,294.114c0-35.917,0-71.301,0-106.958
		c3.474,0,6.517,0,10.171,0c0,32.067,0,63.774,0,96.407c10.208,0,19.857,0,29.934,0c0,3.963,0,7.007,0,10.551
		C1159.656,294.114,1146.529,294.114,1132.675,294.114z"/>
	<path fill-rule="evenodd" clip-rule="evenodd" fill="#242E3C" d="M914.205,181.455c-5.295,0-8.708,0-12.235,0
		c-4.381-6.383-8.717-12.698-13.51-19.682c4.297,0,7.841,0,11.72,0c2.495,3.325,5.221,6.958,8.313,11.077
		c2.767-4.068,5.078-7.468,7.603-11.18c3.183,0,6.536,0,11.494,0C922.675,168.937,918.288,175.421,914.205,181.455z"/>
</g>
<g>
	<defs>
		<polygon id="SVGID_1_" points="10,0 10,296 234.334,296 237.667,212.667 263,198.667 267.667,177.334 365,171.562 359.667,3.334 
					"/>
	</defs>
	<clipPath id="SVGID_2_">
		<use xlink:href="#SVGID_1_"  overflow="visible"/>
	</clipPath>
	<g clip-path="url(#SVGID_2_)">
		<g>
			<defs>
				<rect id="SVGID_3_" x="18.5" y="-26" width="328.5" height="328.5"/>
			</defs>
			<clipPath id="SVGID_4_">
				<use xlink:href="#SVGID_3_"  overflow="visible"/>
			</clipPath>
			<g clip-path="url(#SVGID_4_)">
				<defs>
					<rect id="SVGID_5_" x="18.5" y="-26" width="328.5" height="328.5"/>
				</defs>
				<clipPath id="SVGID_6_">
					<use xlink:href="#SVGID_5_"  overflow="visible"/>
				</clipPath>
				<path clip-path="url(#SVGID_6_)" fill-rule="evenodd" clip-rule="evenodd" fill="#9B9188" d="M199.911,135.951
					c-0.005,8.207,0.055,16.414-0.048,24.62c-0.025,2.01,0.479,3.873,0.873,5.773c0.202,0.972,0.569,2.188,1.716,2.388
					c1.333,0.231,1.676-1.127,2.072-1.984c2.743-5.937,5.322-11.949,8.092-17.875c3.55-7.593,7.209-15.134,10.871-22.674
					c0.692-1.427,1.345-2.923,2.889-3.759c1.75-0.947,3.602-1.061,5.296-0.251c1.83,0.877,2.472,2.594,2.234,4.654
					c-0.628,5.417-2.964,10.334-4.519,15.474c-3.84,12.697-8.415,25.178-11.612,38.066c-1.549,6.243-0.484,12.37,2.396,18.049
					c2.005,3.954,4.2,4.113,7.144,0.858c3.015-3.333,5.719-6.975,8.944-10.083c5.363-5.167,11.94-6.025,18.917-4.139
					c2.897,0.784,3.626,3.291,1.644,5.552c-1.35,1.539-2.95,2.997-4.714,4.013c-10.324,5.937-16.331,15.219-20.687,25.916
					c-4.026,9.889-9.166,19.102-17.432,26.169c-4.107,3.513-3.314,8.503-3.502,12.832c-0.42,9.623-0.857,19.334,1.808,28.827
					c0.676,2.408,0.103,4.134-3.232,4.094c-13.059-0.157-26.123-0.045-39.184-0.076c-3.566-0.01-4.116-0.834-3.426-4.42
					c2.19-11.377,2.712-22.842,1.482-34.359c-0.34-3.19-2.514-5.629-4.37-8.053c-7.206-9.41-10.483-20.321-12.156-31.78
					c-2.875-19.702-7.632-38.83-16.372-56.828c-0.855-1.76-1.669-3.544-2.395-5.36c-1.036-2.591-1.643-5.297,1.289-7.029
					c2.783-1.644,4.889,0.144,6.576,2.115c3.685,4.309,5.896,9.571,8.939,14.297c2.982,4.633,5.55,9.568,9.697,13.367
					c0.866,0.794,1.682,1.834,2.951,1.347c1.522-0.586,1.242-1.998,1.077-3.281c-0.995-7.724-1.945-15.451-2.978-23.169
					c-0.776-5.794-1.679-11.577-1.879-17.426c-0.109-3.186-1.413-6.292-0.328-9.577c0.812-2.462,1.734-4.577,4.727-4.619
					c3.031-0.043,4.021,1.985,4.684,4.558c3.39,13.169,6.829,26.327,10.353,39.461c0.636,2.37,1.039,6.296,3.268,6.258
					c2.715-0.046,2.184-4.054,2.649-6.3c0.926-4.475,1.264-9.086,1.637-13.657c0.999-12.258,1.854-24.528,2.835-36.787
					c0.445-5.566,5.117-8.86,9.016-6.45c2.052,1.269,2.782,3.23,2.773,5.589C199.899,118.844,199.916,127.397,199.911,135.951"/>
				<path clip-path="url(#SVGID_6_)" fill-rule="evenodd" clip-rule="evenodd" fill="#FAE62F" d="M96.945,122.645
					c0.354,3.3,3.117,4.926,4.784,7.268c1.925,2.706,4.397,5.022,6.654,7.487c0.929,1.015,2.152,2.039,1.657,3.508
					c-0.466,1.381-2.18,1.427-3.276,1.488c-10.391,0.574-19.652-2.129-26.442-10.468c-6.865-8.43-10.108-18.333-10.851-29.118
					c-0.622-9.043-0.622-9.407,8.417-8.696c10.36,0.814,19.308,5.376,27.109,12.168c5.78,5.033,9.949,11.071,11.406,18.744
					c0.564,2.974,0.282,5.979,0.167,8.962c-0.041,1.078-0.498,2.498-1.719,2.75c-1.291,0.267-2.356-0.714-3.224-1.653
					C107.253,130.358,102.071,126.576,96.945,122.645"/>
				<path clip-path="url(#SVGID_6_)" fill-rule="evenodd" clip-rule="evenodd" fill="#FAE62F" d="M229.354,90.031
					c-2.104,1.916-4.284,3.756-6.292,5.767c-2.282,2.286-4.406,4.729-6.609,7.094c-0.873,0.938-1.784,1.993-3.235,1.47
					c-1.241-0.447-1.331-1.672-1.539-2.825c-2.801-15.535,4.018-27.777,19.567-35.187c5.509-2.625,11.307-4.334,17.255-5.536
					c4.782-0.967,5.877,0.108,6.26,4.999c1.039,13.245-3.402,24.696-11.842,34.544c-5.612,6.548-12.922,10.235-21.901,9.663
					c-3.22-0.206-3.982-1.496-2.04-4.093C222.745,100.89,226.341,95.75,229.354,90.031"/>
				<path clip-path="url(#SVGID_6_)" fill-rule="evenodd" clip-rule="evenodd" fill="#EE3E24" d="M178.199,64.617
					c-2.24,7.31-3.07,14.407-3.95,21.492c-0.099,0.799,0.003,1.632-0.168,2.41c-0.732,3.324-2.373,3.774-4.947,1.408
					c-8.607-7.914-10.911-18.312-6.432-30.142c3.308-8.737,8.65-16.162,15.348-22.643c2.094-2.026,4.024-1.985,5.854,0.268
					c5.67,6.983,8.954,15.017,10.455,23.833c1.132,6.648,1.182,13.219-1.359,19.609c-1.993,5.012-5.334,8.825-10.196,11.202
					c-3.42,1.672-4.467,0.926-4.489-2.824c-0.039-6.929,1.242-13.806,0.771-20.746C179.011,67.387,179.456,66.2,178.199,64.617"/>
				<path clip-path="url(#SVGID_6_)" fill-rule="evenodd" clip-rule="evenodd" fill="#4DB96E" d="M138.074,99.416
					c0.644,5.868,1.928,11.63,3.182,17.391c0.298,1.371,0.955,2.897-0.185,3.877c-1.304,1.12-2.846,0.131-4.171-0.503
					c-11.846-5.673-17.764-16.835-16.293-30.848c0.777-7.397,2.765-14.301,6.065-20.878c1.698-3.381,3.458-3.989,6.638-1.908
					c13.554,8.87,21.429,21.124,21.437,37.66c0.002,4.863-1.889,9.355-4.688,13.396c-0.684,0.986-1.468,1.994-2.665,1.958
					c-1.525-0.045-1.85-1.521-2.267-2.692c-2.082-5.852-4.137-11.714-6.202-17.572C138.642,99.336,138.358,99.376,138.074,99.416"/>
				<path clip-path="url(#SVGID_6_)" fill-rule="evenodd" clip-rule="evenodd" fill="#EE3E24" d="M103.212,175.108
					c3.805,3.973,7.585,7.968,11.423,11.906c1.932,1.982,4.104,3.743,5.916,5.824c1.598,1.835,0.901,3.369-1.535,3.812
					c-5.218,0.948-10.346,0.454-14.996-2.074c-12.082-6.567-19.034-17.144-22.688-30.1c-0.708-2.512-1.076-5.139-1.39-7.736
					c-0.305-2.53,0.843-4.099,3.564-3.748c14.423,1.855,28.142,5.471,38.423,16.738c4.895,5.363,5.892,12.007,5.084,18.972
					c-0.26,2.25-1.939,2.519-4.05,0.782c-5.239-4.31-10.452-8.651-15.708-12.94c-1.022-0.835-2.19-1.492-3.291-2.231
					C103.714,174.578,103.463,174.843,103.212,175.108"/>
				<path clip-path="url(#SVGID_6_)" fill-rule="evenodd" clip-rule="evenodd" fill="#4DB96E" d="M297.146,197.124
					c-5.814-3.537-11.651-6.302-17.545-8.979c-1.882-0.854-4.86-1.043-4.924-3.646c-0.065-2.69,2.868-3.407,4.828-4.349
					c10.351-4.966,19.491-1.891,27.663,4.961c6.3,5.283,11.433,11.655,15.124,19.081c1.701,3.425,1.332,4.824-2.062,6.206
					c-12.015,4.894-24.103,5.11-36.01-0.25c-6.244-2.811-10.565-7.622-12.547-14.294c-0.486-1.635-0.98-3.564,0.333-4.91
					c1.362-1.396,3.06-0.202,4.523,0.282c5.745,1.898,11.459,3.89,17.188,5.834C294.688,197.39,295.686,197.595,297.146,197.124"/>
				<path clip-path="url(#SVGID_6_)" fill-rule="evenodd" clip-rule="evenodd" fill="#0EA5D2" d="M86.846,61.131
					c5.445,4.505,11.068,8.596,16.999,12.3c1.53,0.956,4.087,1.525,3.703,4.005c-0.351,2.262-2.804,2.579-4.523,3.209
					c-8.943,3.283-19.128,0.347-26.13-7.471c-5.787-6.462-10.16-13.791-13.005-22.007c-1.542-4.452-1.116-5.584,3.395-6.523
					c14.74-3.067,28.23-0.806,39.477,9.987c3.732,3.582,5.111,8.325,5.698,13.266c0.408,3.43-1.57,4.692-4.596,3.026
					c-6.402-3.524-12.756-7.132-19.58-9.818C87.82,60.923,87.488,60.755,86.846,61.131"/>
				<path clip-path="url(#SVGID_6_)" fill-rule="evenodd" clip-rule="evenodd" fill="#0EA4D2" d="M264.804,153.899
					c-7.075,1.532-13.275,2.873-19.473,4.224c-0.332,0.073-0.648,0.351-0.965,0.341c-1.35-0.04-3.07,0.818-3.955-0.353
					c-0.939-1.242-0.144-2.832,0.535-4.201c2.591-5.228,6.863-8.722,12.204-10.516c11.268-3.785,22.507-3.441,33.409,1.594
					c3.354,1.549,3.844,3.075,1.525,5.81c-7.276,8.581-15.354,16.234-26.711,19.012c-6.339,1.551-12.528,0.938-17.873-3.375
					c-0.867-0.7-2.172-1.391-1.842-2.672c0.29-1.127,1.511-1.481,2.673-1.861c5.293-1.733,10.539-3.619,15.792-5.471
					C261.493,155.949,262.938,155.601,264.804,153.899"/>
				<path clip-path="url(#SVGID_6_)" fill-rule="evenodd" clip-rule="evenodd" fill="#4DB96E" d="M219.843,31.452
					c-2.494,4.934-3.955,10.259-5.39,15.599c-0.374,1.395-0.405,3.244-2.076,3.703c-1.755,0.483-2.652-1.234-3.528-2.314
					c-5.158-6.356-5.441-13.49-2.399-20.695c3.331-7.891,8.84-14.208,15.668-19.356c1.995-1.503,3.826-1.376,5.233,0.847
					c4.675,7.377,6.812,15.362,6.088,24.143c-0.479,5.805-2.172,10.975-6.407,15.145c-1.674,1.648-3.707,2.73-5.798,3.662
					c-1.009,0.45-2.299,0.719-3.3-0.133c-1.051-0.896-0.625-2.027-0.356-3.19C218.89,43.175,219.455,37.378,219.843,31.452"/>
				<path clip-path="url(#SVGID_6_)" fill-rule="evenodd" clip-rule="evenodd" fill="#E81F79" d="M259.868,226.288
					c-3.789-2.561-7.976-4.348-12.148-6.18c-1.158-0.51-2.76-0.709-2.777-2.622c-0.017-1.88,1.526-2.196,2.681-2.729
					c9.46-4.356,18.104-2.512,25.866,3.925c4.624,3.835,8.369,8.498,11.056,13.944c1.303,2.641,0.957,4.556-2.042,5.67
					c-11.961,4.446-23.342,3.55-33.911-3.836c-2.983-2.086-4.663-5.318-6.06-8.639c-0.47-1.116-0.653-2.367,0.004-3.312
					c0.814-1.173,2.086-0.479,3.167-0.179C250.402,223.64,254.872,225.735,259.868,226.288"/>
				<path clip-path="url(#SVGID_6_)" fill-rule="evenodd" clip-rule="evenodd" fill="#FAE62F" d="M140.107,38.715
					c1.178,5.058,4.003,8.891,5.747,13.188c0.521,1.285,2.146,2.564,0.748,4.012c-1.252,1.297-3.073,0.813-4.575,0.396
					c-8.052-2.239-12.945-7.725-14.801-15.669c-1.582-6.768-1.368-13.678-0.175-20.549c0.505-2.906,2.255-3.751,4.717-2.773
					c11.714,4.654,20.906,11.825,24.139,24.789c0.834,3.344-0.152,6.424-1.459,9.328c-1.408,3.128-3.315,3.041-5.188,0.063
					c-2.319-3.689-4.645-7.374-6.972-11.058C141.854,39.755,141.381,39.107,140.107,38.715"/>
				<path clip-path="url(#SVGID_6_)" fill-rule="evenodd" clip-rule="evenodd" fill="#4DB96E" d="M321.668,109.892
					c-6,0.463-10.967,1.688-15.892,3.109c-1.549,0.446-3.374,1.21-4.437-0.235c-0.954-1.297-0.267-3.057,0.424-4.571
					c2.078-4.563,5.647-7.549,10.272-9.048c9.502-3.078,18.726-1.973,27.652,2.395c2.485,1.215,3.164,2.933,1.836,5.259
					c-5.094,8.934-11.635,16.225-22.152,18.741c-5.162,1.236-9.77-0.344-13.878-3.358c-2.522-1.852-2.191-3.339,0.769-4.618
					C311.241,115.412,316.539,113.913,321.668,109.892"/>
				<path clip-path="url(#SVGID_6_)" fill-rule="evenodd" clip-rule="evenodd" fill="#FAE62F" d="M124.051,231.377
					c5.18-1.802,9.809-3.375,14.405-5.038c1.134-0.411,2.139-0.907,3.14,0.191c0.928,1.016,0.583,1.993,0.242,3.187
					c-2.57,8.994-9.009,11.753-17.325,12.664c-5.634,0.616-11.199-0.444-16.656-1.986c-2.881-0.814-3.696-2.371-2.432-5.127
					c4.089-8.908,10.473-15.335,20.041-18.044c3.93-1.113,7.997-0.875,11.697,1.197c1.057,0.591,2.322,1.229,2.358,2.755
					c0.04,1.666-1.438,1.949-2.5,2.506c-3.553,1.866-7.146,3.658-10.73,5.465C125.486,229.553,124.614,229.862,124.051,231.377"/>
				<path clip-path="url(#SVGID_6_)" fill-rule="evenodd" clip-rule="evenodd" fill="#EE3E24" d="M269.224,112
					c-3.924,1.938-7.031,5.023-10.54,7.544c-1.133,0.814-2.23,1.968-3.667,1.397c-1.703-0.677-1.071-2.437-0.965-3.688
					c0.596-7.063,4.391-12.074,10.368-15.601c5.929-3.499,12.532-4.699,19.22-5.476c2.689-0.312,4.125,1.069,3.737,3.947
					c-1.168,8.643-5.342,15.676-11.522,21.659c-3.96,3.834-8.511,6.022-14.175,5.567c-1.562-0.125-3.247-0.259-3.856-1.693
					c-0.674-1.588,0.836-2.67,1.911-3.654c3.4-3.107,6.965-6.039,10.026-9.504c0.224-0.31,0.448-0.621,0.672-0.931
					C269.856,111.227,269.463,111.399,269.224,112"/>
				<path clip-path="url(#SVGID_6_)" fill-rule="evenodd" clip-rule="evenodd" fill="#0FA5D2" d="M51.589,171.653
					c2.306,0,4.673,0.334,6.9-0.085c2.766-0.521,5.495-0.104,8.231-0.236c3.572-0.172,4.234,1.391,2.13,4.436
					c-3.922,5.68-9.641,7.697-16.197,6.921c-6.786-0.804-12.982-3.529-18.623-7.39c-3.333-2.279-3.686-3.944-0.966-6.619
					c7.851-7.723,16.971-12.027,28.291-9.441c2.755,0.629,4.958,2.305,6.856,4.371c0.874,0.949,1.815,1.974,1.227,3.345
					c-0.523,1.215-1.795,1.151-2.963,1.311c-4.988,0.681-9.964,1.467-14.943,2.213C51.551,170.869,51.57,171.262,51.589,171.653"/>
				<path clip-path="url(#SVGID_6_)" fill-rule="evenodd" clip-rule="evenodd" fill="#EE3E25" d="M41.348,127.943
					c4.884,0.706,9.477-0.829,14.131-1.513c1.162-0.171,2.355-0.791,3.17,0.244c0.927,1.173,0.471,2.501-0.127,3.838
					c-2.362,5.283-6.959,7.716-12.142,8.425c-7.586,1.038-15.027,0.062-21.833-4.031c-2.584-1.554-3.065-3.572-1.461-5.715
					c5.298-7.079,11.245-13.315,20.727-14.584c4.65-0.623,8.559,0.877,12.047,3.661c2.062,1.645,1.633,3.188-1.064,4.185
					c-3.932,1.455-7.911,2.786-11.87,4.166C42.303,126.836,41.573,126.906,41.348,127.943"/>
				<path clip-path="url(#SVGID_6_)" fill-rule="evenodd" clip-rule="evenodd" fill="#E8207A" d="M286.41,66.059
					c-3.342,1.75-6.67,3.527-10.033,5.237c-1.06,0.539-2.115,1.598-3.443,0.649c-1.547-1.105-1.02-2.777-0.745-4.133
					c1.522-7.511,6.712-11.484,13.714-13.223c5.463-1.356,11.064-1.797,16.704-0.817c2.617,0.455,3.082,2.233,2.697,4.323
					c-1.051,5.708-4.088,10.423-8.066,14.476c-4.205,4.284-9.135,7.26-15.481,6.88c-0.573-0.035-1.225,0.074-1.703-0.162
					c-1.564-0.771-4.067-0.536-4.369-2.737c-0.269-1.957,1.809-2.657,3.16-3.685c2.73-2.079,5.857-3.624,8.268-6.132
					c0.662-0.476,1.661-0.549,1.91-1.625C287.918,64.846,287.21,65.584,286.41,66.059"/>
				<path clip-path="url(#SVGID_6_)" fill-rule="evenodd" clip-rule="evenodd" fill="#FAE62F" d="M321.544,153.086
					c-3.816-0.966-7.648-1.875-11.438-2.93c-1.472-0.409-3.565-0.309-3.903-2.259c-0.289-1.665,1.421-2.562,2.526-3.452
					c4.488-3.62,9.6-4.175,14.916-2.33c6.431,2.233,11.719,6.259,16.321,11.199c1.925,2.067,1.938,4.008-0.646,5.684
					c-7.771,5.041-16.078,6.945-25.157,4.382c-3.357-0.948-5.848-3.145-7.851-5.887c-0.872-1.193-1.704-2.648-0.792-4.143
					c0.965-1.585,2.687-1.251,4.087-0.89C313.467,153.46,317.361,153.773,321.544,153.086"/>
				<path clip-path="url(#SVGID_6_)" fill-rule="evenodd" clip-rule="evenodd" fill="#E8207A" d="M40.113,89.017
					c3.333,3.173,7.408,4.921,11.29,7.005c0.935,0.502,2.307,0.571,2.145,2.215c-0.137,1.38-1.135,2.012-2.168,2.431
					c-4.124,1.671-8.32,1.579-12.356-0.189c-6.67-2.921-11.514-7.822-14.636-14.374c-1.738-3.646-0.962-5.284,3.052-5.981
					c7.783-1.351,15.545-1.791,22.588,2.794c3.324,2.165,5.465,5.222,5.612,9.33c0.074,2.106-0.727,2.961-3.001,1.943
					C48.515,92.349,44.293,90.729,40.113,89.017"/>
				<path clip-path="url(#SVGID_6_)" fill-rule="evenodd" clip-rule="evenodd" fill="#4DB96E" d="M78.222,210.215
					c2.856,0.536,5.723,0.397,8.659,0.014c2.358-0.308,5.625-1.835,6.751,1.097c1.008,2.625-1.734,4.405-3.923,5.788
					c-5.622,3.553-11.664,2.92-17.658,1.521c-3.579-0.835-6.853-2.611-9.857-4.76c-1.931-1.381-2.988-3.38-1.004-5.225
					c6.941-6.45,14.716-11.002,24.747-9.144c2.04,0.378,3.853,1.487,5.465,2.8c1.065,0.866,2.198,1.876,1.866,3.444
					c-0.367,1.732-2.091,1.724-3.331,1.934c-3.921,0.665-7.881,1.096-11.827,1.615C78.146,209.604,78.184,209.909,78.222,210.215"/>
				<path clip-path="url(#SVGID_6_)" fill-rule="evenodd" clip-rule="evenodd" fill="#9DB53C" d="M265.615,32.001
					c-3.538,0.524-6.404,2.309-9.358,3.914c-1.262,0.688-2.622,2.017-4.044,0.819c-1.39-1.169-0.893-2.786-0.422-4.446
					c1.894-6.685,7.411-8.907,13.104-10.882c3.645-1.264,7.494-1.097,11.266-0.859c3.783,0.239,4.783,1.906,3.696,5.493
					c-1.727,5.698-4.452,10.799-9.03,14.744c-3.873,3.337-8.286,4.241-13.132,2.591c-2.294-0.782-2.956-2.084-0.822-3.901
					C259.792,36.988,262.702,34.492,265.615,32.001"/>
				<path clip-path="url(#SVGID_6_)" fill-rule="evenodd" clip-rule="evenodd" fill="#0FA5D2" d="M166.477,15.066
					c0.862,2.895,3.199,4.943,4.387,7.657c1.094,2.499,0.504,3.485-2.214,3.299c-3.776-0.258-6.362-2.618-8.358-5.474
					c-2.958-4.233-4.334-9.053-4.069-14.257c0.115-2.277,0.828-3.913,3.68-3.876c6.656,0.084,14.837,6.009,16.689,12.325
					c0.191,0.65,0.362,1.324,0.409,1.996c0.133,1.886,0.106,4.081-1.722,4.889c-1.674,0.74-2.797-1.188-3.886-2.29
					c-1.527-1.546-2.906-3.24-4.348-4.871c-0.315-0.193-0.458-0.964-0.948-0.486C165.768,14.3,165.967,14.831,166.477,15.066"/>
				<path clip-path="url(#SVGID_6_)" fill-rule="evenodd" clip-rule="evenodd" fill="#E8207A" d="M106.03,26.192
					c0.449,3.675,1.907,6.05,2.735,8.627c0.358,1.116,0.684,2.333-0.3,3.22c-0.949,0.854-2.083,0.485-3.231,0.113
					c-6.58-2.136-8.618-10.518-7.792-17.047c0.057-0.448,0.339-0.863,0.417-1.311c1.24-7.12,2.742-7.914,8.749-3.933
					c5.851,3.877,10.463,8.663,9.416,16.588c-0.191,1.442-0.415,2.887-1.926,3.316c-1.924,0.546-2.441-1.192-3.212-2.431
					C109.507,31.123,108.532,28.634,106.03,26.192"/>
			</g>
		</g>
	</g>
</g>
</svg>
