<?xml version="1.0" encoding="utf-8"?>
<!-- Generator: Adobe Illustrator 16.0.0, SVG Export Plug-In . SVG Version: 6.00 Build 0)  -->
<!DOCTYPE svg PUBLIC "-//W3C//DTD SVG 1.1//EN" "http://www.w3.org/Graphics/SVG/1.1/DTD/svg11.dtd">
<svg version="1.1" id="Layer_1" xmlns="http://www.w3.org/2000/svg" xmlns:xlink="http://www.w3.org/1999/xlink" x="0px" y="0px"
	 width="490px" height="230px" viewBox="0 0 490 230" enable-background="new 0 0 490 230" xml:space="preserve">
<g>
	<g>
		<path fill-rule="evenodd" clip-rule="evenodd" d="M72.6,69.65c7.175,0,15.468-1.788,24.882-5.375V87.36
			c-2.094,0.743-5.084,1.562-8.967,2.462c1.195,3.442,1.796,6.65,1.796,9.644c0,9.556-2.879,17.891-8.633,24.993
			c-5.751,7.091-13.186,11.317-22.302,12.665c-5.976,0.888-8.966,4.104-8.966,9.632c0,1.945,0.973,3.89,2.913,5.835
			c2.538,2.833,6.275,4.633,11.21,5.375c21.367,3.285,32.049,12.175,32.049,26.678c0,23.154-13.821,34.747-41.467,34.747
			c-11.359,0-20.697-2.029-28.021-6.057c-9.262-5.077-13.897-13.078-13.897-23.989c0-12.55,6.948-21.148,20.846-25.773v-0.452
			c-5.076-3.132-7.618-7.917-7.618-14.342c0-8.376,2.393-13.599,7.174-15.688v-0.452c-4.781-1.639-9.043-5.383-12.775-11.21
			c-4.185-6.271-6.274-12.998-6.274-20.169c0-10.762,3.809-19.724,11.428-26.898c7.324-6.723,16.064-10.085,26.226-10.085
			C59.525,64.274,66.325,66.062,72.6,69.65L72.6,69.65z M73.5,187.553c0-7.626-6.279-11.432-18.833-11.432
			c-12.105,0-18.154,3.958-18.154,11.884c0,7.764,6.573,11.646,19.721,11.646C67.741,199.651,73.5,195.623,73.5,187.553
			L73.5,187.553z M38.978,101.48c0,10.31,4.71,15.463,14.12,15.463c9.115,0,13.672-5.222,13.672-15.686
			c0-4.333-1.042-8.074-3.136-11.209c-2.538-3.434-6.049-5.153-10.536-5.153C43.688,84.895,38.978,90.423,38.978,101.48
			L38.978,101.48z M38.978,101.48"/>
		<path fill-rule="evenodd" clip-rule="evenodd" d="M121.249,47.904c-4.33,0-8.032-1.643-11.095-4.924
			c-3.063-3.292-4.595-7.175-4.595-11.662c0-4.628,1.531-8.587,4.595-11.88c3.062-3.285,6.765-4.931,11.095-4.931
			c4.181,0,7.813,1.646,10.869,4.931c3.066,3.292,4.594,7.251,4.594,11.88c0,4.487-1.527,8.369-4.594,11.662
			C129.062,46.262,125.43,47.904,121.249,47.904L121.249,47.904z M121.249,47.904"/>
		<path fill-rule="evenodd" clip-rule="evenodd" d="M108.921,164.911c0-2.986,0-8.062,0-15.237V79.96c0-7.021,0-11.855,0-14.571
			h24.43c0,2.778,0,7.55,0,14.124v68.814c0,7.618,0,12.966,0,16.585H108.921z M108.921,164.911"/>
		<path fill-rule="evenodd" clip-rule="evenodd" d="M180.185,65.389h19.499v21.298c-0.746,0-2.257,0-4.146,0
			c-2.027,0-3.92,0-5.716,0h-9.637v41.693c0,10.015,3.289,15.022,9.862,15.022c4.629,0,8.817-1.271,12.547-3.813v22.404
			c-5.529,3.002-12.171,4.487-19.947,4.487c-10.903,0-18.453-3.882-22.634-11.653c-3.14-5.827-4.709-15.016-4.709-27.573V87.135l0,0
			v-0.448h-3.14c-1.941,0-4.659,0-7.622,0V65.389h10.983v-8.736c0-4.188,0-7.518,0-10.088h24.659c0,2.697,0,6.053,0,9.636V65.389z
			 M180.185,65.389"/>
		<path fill-rule="evenodd" clip-rule="evenodd" d="M258.914,64.715c-6.416,0-13.139,2.248-20.172,6.734v-39.23
			c0-8.519,0-16.815,0-16.815h-24.426c0,0,0,7.998,0,16.815v118.58c0,6.86,0,14.112,0,14.112h24.426v-5.557c0,0,0-6.021,0-8.556
			V95.657c5.233-4.935,10.303-7.4,15.249-7.4c5.681,0,10.015,2.833,13.001,8.515c2.244,4.486,3.361,10.084,3.361,16.811
			l-0.12,30.265c0,5.084,0,21.064,0,21.064h24.998V144.29v-30.708c0-12.998-2.909-24.059-8.736-33.17
			C279.918,69.948,270.729,64.715,258.914,64.715L258.914,64.715z M258.914,64.715"/>
		<path fill-rule="evenodd" clip-rule="evenodd" d="M338.271,165.807c-11.807,0-20.543-5.229-26.225-15.682
			c-4.479-8.529-6.723-19.647-6.723-33.399V86.009c0-10.157,0-20.621,0-20.621h24.948v21.072l-0.071,30.265
			c0,8.515,0.973,14.64,2.918,18.377c2.243,4.64,6.362,6.952,12.327,6.952c4.188,0,8.897-2.466,14.112-7.404V79.512
			c0-2.535,0-8.737,0-8.737v-5.387h24.671c0,0,0,7.248,0,14.124v68.591c0,8.813,0,16.808,0,16.808h-23.981v-8.062
			C353.356,162.82,346.044,165.807,338.271,165.807L338.271,165.807z M338.271,165.807"/>
		<path fill-rule="evenodd" clip-rule="evenodd" d="M439.153,165.585c-8.071,0-14.794-2.918-20.169-8.736v8.062h-23.086
			c0,0,0-7.252,0-14.112V32.219c0-8.817,0-16.815,0-16.815h24.434c0,0,0,8.296,0,16.815v39.005
			c6.868-4.334,13.592-6.509,20.169-6.509c11.792,0,21.071,5.233,27.795,15.697c5.682,9.111,8.507,20.172,8.507,33.17
			c0,13.304-2.986,24.882-8.959,34.744C460.677,159.835,451.105,165.585,439.153,165.585L439.153,165.585z M435.792,88.257
			c-4.924,0-10.085,2.465-15.46,7.4v38.771c4.778,4.64,9.487,6.952,14.112,6.952c5.827,0,10.229-3.216,13.231-9.64
			c2.389-5.077,3.575-11.13,3.575-18.159C451.251,96.698,446.09,88.257,435.792,88.257L435.792,88.257z M435.792,88.257"/>
	</g>
	<g>
		<path d="M125.935,186.404c-1.42-1.93-3.246-3.155-5.734-3.155c-2.394,0-4.675,1.838-4.675,4.319c0,6.447,15.18,3.752,15.18,16.608
			c0,7.664-4.771,13.101-12.592,13.101c-5.283,0-9.143-3.048-11.784-7.466l4.828-4.725c1.015,2.956,3.706,5.59,6.91,5.59
			c3.04,0,4.928-2.588,4.928-5.543c0-3.951-3.66-5.069-6.658-6.233c-4.928-2.036-8.534-4.525-8.534-10.467
			c0-6.355,4.725-11.478,11.172-11.478c3.407,0,8.128,1.669,10.464,4.257L125.935,186.404z"/>
		<path d="M151.731,217.277c-11.685,0-18.947-8.943-18.947-20.215c0-11.378,7.523-20.106,18.947-20.106
			c11.428,0,18.943,8.729,18.943,20.106C170.675,208.334,163.408,217.277,151.731,217.277z M151.731,184.321
			c-7.056,0-11.226,6.248-11.226,12.436c0,5.896,2.948,13.162,11.226,13.162c8.281,0,11.222-7.267,11.222-13.162
			C162.953,190.569,158.791,184.321,151.731,184.321z"/>
		<path d="M199.925,188.135c-2.087-2.55-5.233-4.073-8.431-4.073c-7.167,0-11.274,6.6-11.274,13.216
			c0,6.439,4.261,12.895,11.217,12.895c3.201,0,6.401-1.685,8.488-4.059v8.882c-2.795,1.325-5.59,2.282-8.683,2.282
			c-10.771,0-18.745-9.296-18.745-19.854c0-10.865,7.669-20.467,18.897-20.467c2.994,0,5.942,0.811,8.53,2.228V188.135z"/>
		<path d="M212.313,216.267h-7.473v-38.301h7.473V216.267z"/>
		<path d="M225.561,208.196l-3.144,8.07h-7.875l14.938-39.311h5.789l14.518,39.311h-7.971l-2.94-8.07H225.561z M232.016,188.173
			h-0.1l-4.216,13.928h9.09L232.016,188.173z"/>
		<path d="M259.55,209.766h10.552v6.501h-18.032v-38.301h7.48V209.766z"/>
		<path d="M312.767,188.135c-2.091-2.55-5.237-4.073-8.438-4.073c-7.167,0-11.271,6.6-11.271,13.216
			c0,6.439,4.266,12.895,11.218,12.895c3.201,0,6.401-1.685,8.492-4.059v8.882c-2.788,1.325-5.598,2.282-8.684,2.282
			c-10.773,0-18.752-9.296-18.752-19.854c0-10.865,7.673-20.467,18.89-20.467c3.002,0,5.949,0.811,8.546,2.228V188.135z"/>
		<path d="M334.803,217.277c-11.684,0-18.951-8.943-18.951-20.215c0-11.378,7.52-20.106,18.951-20.106
			c11.417,0,18.937,8.729,18.937,20.106C353.739,208.334,346.473,217.277,334.803,217.277z M334.803,184.321
			c-7.066,0-11.232,6.248-11.232,12.436c0,5.896,2.948,13.162,11.232,13.162c8.27,0,11.218-7.267,11.218-13.162
			C346.021,190.569,341.855,184.321,334.803,184.321z"/>
		<path d="M357.384,177.966h10.682c11.057,0,18.483,8.285,18.483,19.196c0,10.781-7.626,19.104-18.537,19.104h-10.628V177.966z
			 M364.865,209.766h1.201c9.212,0,12.765-5.076,12.765-12.642c0-8.338-4.272-12.649-12.765-12.649h-1.201V209.766z"/>
		<path d="M397.66,216.267h-7.466v-38.301h7.466V216.267z"/>
		<path d="M403.088,176.956h5.391l20.154,26.761h0.106v-25.751h7.466v39.066h-5.375l-20.177-26.769h-0.084v26.003h-7.481V176.956z"
			/>
		<path d="M475.471,195.899v0.965c0,10.818-5.536,20.413-17.42,20.413c-11.188,0-18.247-9.448-18.247-20
			c0-10.927,7.259-20.321,18.69-20.321c6.509,0,12.19,3.3,15.139,9.142l-6.593,3.554c-1.531-3.454-4.786-6.096-8.737-6.096
			c-7.213,0-10.773,7.358-10.773,13.722c0,6.34,3.6,13.399,10.828,13.399c4.67,0,8.575-4.065,8.713-8.683h-8.124v-6.095H475.471z"/>
	</g>
</g>
</svg>
