<?xml version="1.0" encoding="utf-8"?>
<!-- Generator: Adobe Illustrator 16.0.0, SVG Export Plug-In . SVG Version: 6.00 Build 0)  -->
<!DOCTYPE svg PUBLIC "-//W3C//DTD SVG 1.1//EN" "http://www.w3.org/Graphics/SVG/1.1/DTD/svg11.dtd">
<svg version="1.1" id="Layer_1" xmlns="http://www.w3.org/2000/svg" xmlns:xlink="http://www.w3.org/1999/xlink" x="0px" y="0px"
	 width="170.079px" height="382.677px" viewBox="0 0 170.079 382.677" enable-background="new 0 0 170.079 382.677"
	 xml:space="preserve">
<path fill="#2B82A1" d="M28.629,42.805h84.473c7.852,0,14.176,6.32,14.176,14.172v13.605c0,7.852-6.324,14.176-14.176,14.176H28.629
	c-7.852,0-14.172-6.324-14.172-14.176V56.977C14.457,49.125,20.777,42.805,28.629,42.805z"/>
<path fill="none" stroke="#000000" stroke-width="0.5669" d="M28.629,42.805h84.473c7.852,0,14.176,6.32,14.176,14.172v13.605
	c0,7.852-6.324,14.176-14.176,14.176H28.629c-7.852,0-14.172-6.324-14.172-14.176V56.977C14.457,49.125,20.777,42.805,28.629,42.805
	z"/>
<text transform="matrix(1 0 0 1 28.5288 67.25)"><tspan x="0" y="0" font-family="'MuseoSans-500'" font-size="9.6">Dob</tspan><tspan x="18.854" y="0" font-family="'MuseoSans-500'" font-size="9.6">r</tspan><tspan x="22.416" y="0" font-family="'MuseoSans-500'" font-size="9.6">ovolný p</tspan></text>
<text transform="matrix(1 0 0 1 89.1904 67.25)" font-family="'MuseoSans-500'" font-size="9.6">ř</text>
<text transform="matrix(1 0 0 1 92.7529 67.25)" font-family="'MuseoSans-500'" font-size="9.6">eklad</text>
<path fill="#2B82A1" d="M28.629,99.496h84.473c7.852,0,14.176,6.32,14.176,14.172v13.609c0,7.852-6.324,14.172-14.176,14.172H28.629
	c-7.852,0-14.172-6.32-14.172-14.172v-13.609C14.457,105.816,20.777,99.496,28.629,99.496z"/>
<path fill="none" stroke="#000000" stroke-width="0.5669" d="M28.629,99.496h84.473c7.852,0,14.176,6.32,14.176,14.172v13.609
	c0,7.852-6.324,14.172-14.176,14.172H28.629c-7.852,0-14.172-6.32-14.172-14.172v-13.609
	C14.457,105.816,20.777,99.496,28.629,99.496z"/>
<text transform="matrix(1 0 0 1 31.395 123.6704)"><tspan x="0" y="0" font-family="'MuseoSans-500'" font-size="9.6">Jazy</tspan><tspan x="20.083" y="0" font-family="'MuseoSans-500'" font-size="9.6">k</tspan><tspan x="25.065" y="0" font-family="'MuseoSans-500'" font-size="9.6">ová </tspan><tspan x="43.411" y="0" font-family="'MuseoSans-500'" font-size="9.6">k</tspan><tspan x="48.374" y="0" font-family="'MuseoSans-500'" font-size="9.6">ont</tspan><tspan x="63.589" y="0" font-family="'MuseoSans-500'" font-size="9.6">r</tspan><tspan x="67.161" y="0" font-family="'MuseoSans-500'" font-size="9.6">ola</tspan></text>
<path fill="#2B82A1" d="M28.629,156.188h84.473c7.852,0,14.176,6.324,14.176,14.175v13.606c0,7.851-6.324,14.172-14.176,14.172
	H28.629c-7.852,0-14.172-6.321-14.172-14.172v-13.606C14.457,162.512,20.777,156.188,28.629,156.188z"/>
<path fill="none" stroke="#000000" stroke-width="0.5669" d="M28.629,156.188h84.473c7.852,0,14.176,6.324,14.176,14.175v13.606
	c0,7.851-6.324,14.172-14.176,14.172H28.629c-7.852,0-14.172-6.321-14.172-14.172v-13.606
	C14.457,162.512,20.777,156.188,28.629,156.188z"/>
<text transform="matrix(1 0 0 1 32.9951 180.3633)"><tspan x="0" y="0" font-family="'MuseoSans-500'" font-size="9.6">Odborná </tspan><tspan x="42.326" y="0" font-family="'MuseoSans-500'" font-size="9.6">k</tspan><tspan x="47.299" y="0" font-family="'MuseoSans-500'" font-size="9.6">o</tspan><tspan x="53.289" y="0" font-family="'MuseoSans-500'" font-size="9.6">r</tspan><tspan x="56.841" y="0" font-family="'MuseoSans-500'" font-size="9.6">e</tspan><tspan x="62.169" y="0" font-family="'MuseoSans-500'" font-size="9.6">k</tspan><tspan x="67.151" y="0" font-family="'MuseoSans-500'" font-size="9.6">ce</tspan></text>
<path fill="#9DB63B" d="M28.629,212.883h84.473c7.852,0,14.176,6.319,14.176,14.172v13.604c0,7.853-6.324,14.177-14.176,14.177
	H28.629c-7.852,0-14.172-6.324-14.172-14.177v-13.604C14.457,219.203,20.777,212.883,28.629,212.883z"/>
<path fill="none" stroke="#000000" stroke-width="0.5669" d="M28.629,212.883h84.473c7.852,0,14.176,6.319,14.176,14.172v13.604
	c0,7.853-6.324,14.177-14.176,14.177H28.629c-7.852,0-14.172-6.324-14.172-14.177v-13.604
	C14.457,219.203,20.777,212.883,28.629,212.883z"/>
<text transform="matrix(1 0 0 1 31.395 237.0562)"><tspan x="0" y="0" font-family="'MuseoSans-500'" font-size="9.6">Ú</tspan><tspan x="6.96" y="0" font-family="'MuseoSans-500'" font-size="9.6">prava p</tspan><tspan x="39.503" y="0" font-family="'MuseoSans-500'" font-size="9.6">r</tspan><tspan x="43.065" y="0" font-family="'MuseoSans-500'" font-size="9.6">o dabing</tspan></text>
<path fill="#9DB63B" d="M28.629,269.574h84.473c7.852,0,14.176,6.321,14.176,14.172v13.609c0,7.853-6.324,14.172-14.176,14.172
	H28.629c-7.852,0-14.172-6.319-14.172-14.172v-13.609C14.457,275.895,20.777,269.574,28.629,269.574z"/>
<path fill="none" stroke="#000000" stroke-width="0.5669" d="M28.629,269.574h84.473c7.852,0,14.176,6.321,14.176,14.172v13.609
	c0,7.853-6.324,14.172-14.176,14.172H28.629c-7.852,0-14.172-6.319-14.172-14.172v-13.609
	C14.457,275.895,20.777,269.574,28.629,269.574z"/>
<text transform="matrix(1 0 0 1 55.395 293.7485)" font-family="'MuseoSans-500'" font-size="9.6">Dabing</text>
<path fill="none" stroke="#000000" stroke-width="0.5669" d="M28.629,326.27h84.473c7.852,0,14.176,6.32,14.176,14.171v13.606
	c0,7.851-6.324,14.172-14.176,14.172H28.629c-7.852,0-14.172-6.321-14.172-14.172v-13.606
	C14.457,332.59,20.777,326.27,28.629,326.27z"/>
<text transform="matrix(1 0 0 1 39.395 350.4419)"><tspan x="0" y="0" font-family="'MuseoSans-500'" font-size="9.6">Ú</tspan><tspan x="6.96" y="0" font-family="'MuseoSans-500'" font-size="9.6">pravy obr</tspan><tspan x="48.921" y="0" font-family="'MuseoSans-500'" font-size="9.6">a</tspan><tspan x="53.961" y="0" font-family="'MuseoSans-500'" font-size="9.6">zu</tspan></text>
<line fill="none" stroke="#000000" stroke-width="0.7994" x1="72.77" y1="85.438" x2="72.656" y2="97.168"/>
<polygon fill-rule="evenodd" clip-rule="evenodd" points="72.636,99.012 71.067,96.23 74.262,96.262 "/>
<polygon fill="none" stroke="#000000" stroke-width="0.3997" points="72.636,99.012 71.067,96.23 74.262,96.262 "/>
<line fill="none" stroke="#000000" stroke-width="0.7994" x1="72.77" y1="142.133" x2="72.656" y2="153.859"/>
<polygon fill-rule="evenodd" clip-rule="evenodd" points="72.637,155.707 71.066,152.926 74.262,152.957 "/>
<polygon fill="none" stroke="#000000" stroke-width="0.3997" points="72.637,155.707 71.066,152.926 74.262,152.957 "/>
<line fill="none" stroke="#000000" stroke-width="0.7994" x1="72.77" y1="198.824" x2="72.656" y2="210.555"/>
<polygon fill-rule="evenodd" clip-rule="evenodd" points="72.637,212.398 71.066,209.617 74.262,209.648 "/>
<polygon fill="none" stroke="#000000" stroke-width="0.3997" points="72.637,212.398 71.066,209.617 74.262,209.648 "/>
<line fill="none" stroke="#000000" stroke-width="0.7994" x1="72.77" y1="255.516" x2="72.656" y2="267.246"/>
<polygon fill-rule="evenodd" clip-rule="evenodd" points="72.637,269.09 71.066,266.309 74.262,266.339 "/>
<polygon fill="none" stroke="#000000" stroke-width="0.3997" points="72.637,269.09 71.066,266.309 74.262,266.339 "/>
<line fill="none" stroke="#000000" stroke-width="0.7994" x1="72.77" y1="312.211" x2="72.656" y2="323.941"/>
<polygon fill-rule="evenodd" clip-rule="evenodd" points="72.637,325.786 71.066,323.004 74.261,323.035 "/>
<polygon fill="none" stroke="#000000" stroke-width="0.3997" points="72.637,325.786 71.066,323.004 74.261,323.035 "/>
<line fill="none" stroke="#000000" stroke-width="0.7994" x1="72.77" y1="28.746" x2="72.656" y2="40.477"/>
<polygon fill-rule="evenodd" clip-rule="evenodd" points="72.637,42.32 71.066,39.539 74.261,39.571 "/>
<polygon fill="none" stroke="#000000" stroke-width="0.3997" points="72.637,42.32 71.066,39.539 74.261,39.571 "/>
<text transform="matrix(1 0 0 1 39.1191 21.8579)"><tspan x="0" y="0" font-family="'MuseoSans-700'" font-size="9.6">Výu</tspan><tspan x="15.168" y="0" font-family="'MuseoSans-700'" font-size="9.6">k</tspan><tspan x="19.622" y="0" font-family="'MuseoSans-700'" font-size="9.6">ové vi</tspan><tspan x="43.218" y="0" font-family="'MuseoSans-700'" font-size="9.6">d</tspan><tspan x="48.661" y="0" font-family="'MuseoSans-700'" font-size="9.6">eo</tspan></text>
<polyline fill="none" stroke="#000000" stroke-width="0.7994" points="72.98,203.91 149.516,203.91 149.516,92.125 74.551,92.125 
	"/>
<path fill-rule="evenodd" clip-rule="evenodd" d="M74.547,203.91c0,0.884-0.715,1.603-1.598,1.603c-0.883,0-1.601-0.719-1.601-1.603
	c0-0.879,0.718-1.598,1.601-1.598C73.832,202.312,74.547,203.031,74.547,203.91z"/>
<path fill="none" stroke="#000000" stroke-width="0.3997" d="M74.547,203.91c0,0.884-0.715,1.603-1.598,1.603
	c-0.883,0-1.601-0.719-1.601-1.603c0-0.879,0.718-1.598,1.601-1.598C73.832,202.312,74.547,203.031,74.547,203.91z"/>
<polygon fill-rule="evenodd" clip-rule="evenodd" points="72.707,92.125 75.473,90.527 75.473,93.727 "/>
<polygon fill="none" stroke="#000000" stroke-width="0.3997" points="72.707,92.125 75.473,90.527 75.473,93.727 "/>
</svg>
